<?xml version="1.0" encoding="UTF-8"?>
<svg version="1.1" xmlns="http://www.w3.org/2000/svg" width="430" height="136">
<path d="M0 0 C3.58136255 8.6305365 6.59037446 17.42191222 9.55664062 26.27929688 C11.97941105 33.39644743 14.74982984 40.21995631 18 47 C17.97905273 45.68281982 17.95810547 44.36563965 17.93652344 43.00854492 C17.86419557 38.12779587 17.81822638 33.2470943 17.78027344 28.3659668 C17.76014153 26.25227903 17.73283357 24.13864706 17.69824219 22.02514648 C17.64979373 18.98928065 17.62704724 15.95415022 17.609375 12.91796875 C17.57840729 11.4975251 17.57840729 11.4975251 17.54681396 10.04838562 C17.54456814 3.50183857 17.54456814 3.50183857 19.89282227 0.91430664 C23.32837613 -0.5763838 26.26032185 -0.7547752 30 -1 C31 -0 31 -0 31.1328125 1.78515625 C31.13023438 2.53667969 31.12765625 3.28820312 31.125 4.0625 C31.12886719 5.16271484 31.12886719 5.16271484 31.1328125 6.28515625 C31 9 31 9 30.5 12.50683594 C29.86094003 17.54195878 29.85634012 22.53609908 29.8671875 27.60546875 C29.86623077 28.60653152 29.86527405 29.6075943 29.86428833 30.63899231 C29.86361072 32.74931908 29.86543568 34.85964799 29.86962891 36.9699707 C29.87495471 40.16036804 29.8696842 43.35062278 29.86328125 46.54101562 C29.86029058 56.73890073 29.91559581 66.84884046 31 77 C25.49051169 80.36891663 21.59127358 81.70620788 15 81 C10.3720092 76.62598431 8.51387115 70.49249093 6.25 64.6875 C5.81896973 63.59767822 5.38793945 62.50785645 4.94384766 61.38500977 C0.52787574 50.06552635 -3.27523354 38.56099559 -7 27 C-6.99111755 27.61974197 -6.98223511 28.23948395 -6.9730835 28.87800598 C-6.88471377 35.31774692 -6.82430895 41.75731617 -6.78027344 48.19750977 C-6.76013553 50.6022033 -6.7328233 53.00684775 -6.69824219 55.41137695 C-6.64982123 58.86421814 -6.62705289 62.31641298 -6.609375 65.76953125 C-6.58872986 66.84773636 -6.56808472 67.92594147 -6.54681396 69.03681946 C-6.54651184 70.03763046 -6.54620972 71.03844147 -6.54589844 72.06958008 C-6.53701599 72.95116287 -6.52813354 73.83274567 -6.51898193 74.74104309 C-7 77 -7 77 -8.89898682 78.77397156 C-12.2714929 80.74196891 -15.11821383 80.74956218 -19 81 C-19.66 80.67 -20.32 80.34 -21 80 C-20.92935333 79.43674011 -20.85870667 78.87348022 -20.78591919 78.29315186 C-19.9510971 70.95989551 -19.85495202 63.70313809 -19.8671875 56.328125 C-19.86623077 55.04693787 -19.86527405 53.76575073 -19.86428833 52.44573975 C-19.86282513 49.75303929 -19.86492255 47.06037231 -19.86962891 44.36767578 C-19.87534848 40.92929064 -19.87202441 37.49098321 -19.86605644 34.05260086 C-19.86156366 30.74860276 -19.86471285 27.4446253 -19.8671875 24.140625 C-19.86516327 22.91241028 -19.86313904 21.68419556 -19.86105347 20.41876221 C-19.86420563 19.27026794 -19.86735779 18.12177368 -19.87060547 16.93847656 C-19.87140106 15.93383362 -19.87219666 14.92919067 -19.87301636 13.894104 C-19.94000614 10.92402658 -19.94000614 10.92402658 -20.5774231 7.73919678 C-21 5 -21 5 -19.890625 3.234375 C-13.95637515 -0.64005259 -6.78331274 -1.65814311 0 0 Z " fill="#E75A0B" transform="translate(44,15)"/>
<path d="M0 0 C1.13053038 3.39159114 0.73158616 4.58489108 0 8 C-0.09636043 9.91463883 -0.14516355 11.83200241 -0.15771484 13.74902344 C-0.17310806 15.44668854 -0.17310806 15.44668854 -0.18881226 17.1786499 C-0.19611359 18.39328918 -0.20341492 19.60792847 -0.2109375 20.859375 C-0.23900826 23.44531881 -0.26767274 26.03125622 -0.296875 28.6171875 C-0.33921497 32.68323383 -0.3760422 36.74924019 -0.40136719 40.81542969 C-0.42650235 44.74695885 -0.47493491 48.67806331 -0.5234375 52.609375 C-0.52669037 53.81591736 -0.52994324 55.02245972 -0.53329468 56.26556396 C-0.67842171 66.29070969 -2.08670927 73.93027204 -9.11328125 81.33984375 C-14.09107284 85.71988811 -19.65831747 86.44371206 -26 87 C-26.495 84.525 -26.495 84.525 -27 82 C-26.0925 81.401875 -25.185 80.80375 -24.25 80.1875 C-17.06367188 74.11979843 -16.11004654 63.03788602 -15.17456055 54.22396851 C-14.54629726 46.21965261 -14.80278437 38.14638481 -14.875 30.125 C-14.88505604 28.16536919 -14.89417722 26.20573335 -14.90234375 24.24609375 C-14.92413511 19.49726913 -14.95851835 14.74869177 -15 10 C-19.0758494 10.48701862 -19.0758494 10.48701862 -22.75 12.125 C-27.23538552 18.85307828 -26.40568901 27.25417035 -26 35 C-25.55398984 37.29992046 -25.55398984 37.29992046 -25 39 C-23.700625 38.979375 -22.40125 38.95875 -21.0625 38.9375 C-19.70834367 38.91600546 -18.35243917 38.92851801 -17 39 C-16 40 -16 40 -15.9453125 41.92578125 C-16.24656108 45.92714827 -16.48513657 48.34033123 -19 51.5625 C-23.11100862 53.53235829 -26.51995957 53.6679333 -31 53 C-35.23879239 51.24919445 -37.1400246 49.1628021 -39 45 C-42.53113857 33.82154357 -41.29195166 22.37674507 -36 12 C-32.97090571 6.54763028 -29.72713133 3.13970132 -23.63671875 1.27734375 C-18.39078038 0.07531538 -14.33971111 0.14564622 -9 1 C-5.35816264 -0.71380582 -4.01971475 -1.11658743 0 0 Z " fill="#F28710" transform="translate(162,42)"/>
<path d="M0 0 C-0.53239608 4.52536666 -2.27123273 7.38839627 -5 11 C-8.20380017 13.13586678 -9.01939967 13.23132175 -12.6875 13.125 C-13.49574219 13.10695313 -14.30398437 13.08890625 -15.13671875 13.0703125 C-16.05904297 13.03550781 -16.05904297 13.03550781 -17 13 C-17.02571812 19.38223391 -17.04301819 25.76445407 -17.05493164 32.14672852 C-17.05990723 34.31014505 -17.06669009 36.47355832 -17.07543945 38.63696289 C-17.08780672 41.77752041 -17.09454996 44.91801389 -17.09765625 48.05859375 C-17.09923737 49.08189789 -17.10081848 50.10520203 -17.10244751 51.15951538 C-17.08368062 58.11630918 -16.81499005 65.02055548 -16.08888245 71.94200134 C-15.69027672 76.54736382 -15.69027672 76.54736382 -17.28149414 78.87280273 C-22.43659718 82.25412263 -28.08573772 82.20751797 -34 82 C-34.93828615 78.91636626 -35.01761871 76.4905856 -34.6953125 73.29296875 C-34.60685059 72.33181152 -34.51838867 71.3706543 -34.42724609 70.38037109 C-34.32750488 69.32672363 -34.22776367 68.27307617 -34.125 67.1875 C-33.07288737 55.08732062 -32.65166919 43.01368766 -32.375 30.875 C-32.35471741 29.98791351 -32.33443481 29.10082703 -32.3135376 28.18685913 C-32.19993215 23.12473404 -32.09598984 18.06248836 -32 13 C-33.72945653 13.14235457 -35.45855654 13.28904382 -37.1875 13.4375 C-38.15042969 13.51871094 -39.11335937 13.59992187 -40.10546875 13.68359375 C-42.78649602 13.97666151 -45.3662986 14.42703754 -48 15 C-48.33 14.01 -48.66 13.02 -49 12 C-46.289592 7.1004163 -43.03986793 3.51993396 -38 1 C-36.23020271 0.93875185 -34.45805513 0.93997133 -32.6875 0.97265625 C-31.07294922 0.99102539 -31.07294922 0.99102539 -29.42578125 1.00976562 C-27.17310529 1.04444194 -24.92049021 1.08338149 -22.66796875 1.12695312 C-16.53178927 1.18882445 -10.98414309 0.84824473 -5.0234375 -0.66235352 C-3 -1 -3 -1 0 0 Z " fill="#F28E14" transform="translate(251,14)"/>
<path d="M0 0 C4.04980106 4.18043981 4.13999211 8.35567654 4.24609375 13.9765625 C4.27906381 15.38412006 4.31227486 16.791672 4.34570312 18.19921875 C4.39282829 20.40409041 4.4372117 22.60894469 4.47680664 24.81396484 C4.62676617 32.78247313 5.01975635 40.23333008 7 48 C5.19728218 49.80271782 2.55591251 49.21502284 0.125 49.25 C-1.47988281 49.28867188 -1.47988281 49.28867188 -3.1171875 49.328125 C-6 49 -6 49 -7.64819336 47.79858398 C-9.4355068 45.42055651 -9.42624399 43.8519579 -9.51171875 40.89453125 C-9.56489258 39.42016602 -9.56489258 39.42016602 -9.61914062 37.91601562 C-9.64169922 36.89185547 -9.66425781 35.86769531 -9.6875 34.8125 C-9.73874023 33.25885742 -9.73874023 33.25885742 -9.79101562 31.67382812 C-9.87352642 29.1159934 -9.94266572 26.55850277 -10 24 C-11.46224799 24.42423244 -12.91973412 24.86490245 -14.375 25.3125 C-15.59316406 25.67794922 -15.59316406 25.67794922 -16.8359375 26.05078125 C-19.33184629 26.91368185 -19.33184629 26.91368185 -21 30 C-21.16713569 32.62531524 -21.16713569 32.62531524 -21 35 C-18.63591793 35.75988352 -17.30986733 36.0820237 -14.875 35.4375 C-14.25625 35.293125 -13.6375 35.14875 -13 35 C-11 37 -11 37 -10.5625 40.375 C-11 44 -11 44 -13.375 46.375 C-18.3226662 49.43784098 -22.24009708 49.4905911 -28 49 C-31.53391537 47.6465856 -32.67023665 46.4775883 -34.8125 43.375 C-36.72453528 37.94079446 -36.75982549 33.27947647 -34.9375 27.8125 C-29.7962668 20.34941955 -22.95629269 16.45001591 -14.125 14.8125 C-12.41813304 14.53257382 -10.7102184 14.25866292 -9 14 C-9.33 11.69 -9.66 9.38 -10 7 C-12.34995854 6.16072909 -13.73350886 5.93908774 -16.1875 6.5 C-18.98424437 8.81454706 -18.62048653 11.52112655 -19 15 C-21.7798816 16.3899408 -23.9186326 16.18488204 -27 16 C-30.7 14.6 -30.7 14.6 -32 12 C-32.12301827 7.44832405 -31.90871028 4.01256289 -28.8125 0.5625 C-19.73249345 -4.48194808 -9.28727425 -4.72806689 0 0 Z " fill="#F9A615" transform="translate(278,46)"/>
<path d="M0 0 C3.72878225 4.52078393 4.50220518 7.68542193 4.5390625 13.48828125 C4.55085541 14.19091599 4.56264832 14.89355072 4.57479858 15.61747742 C4.60986233 17.84937904 4.61920032 20.08034646 4.625 22.3125 C4.64675345 25.24633665 4.6808771 28.17972107 4.7265625 31.11328125 C4.73617004 31.81067413 4.74577759 32.50806702 4.75567627 33.22659302 C4.87281244 38.40595118 5.7028908 43.00557527 7 48 C5.19728218 49.80271782 2.55591251 49.21502284 0.125 49.25 C-1.47988281 49.28867188 -1.47988281 49.28867188 -3.1171875 49.328125 C-6 49 -6 49 -7.66186523 47.81225586 C-9.48584424 45.3420139 -9.34351247 43.72525215 -9.29296875 40.67578125 C-9.28330078 39.64775391 -9.27363281 38.61972656 -9.26367188 37.56054688 C-9.23853516 36.48869141 -9.21339844 35.41683594 -9.1875 34.3125 C-9.16719727 32.68731445 -9.16719727 32.68731445 -9.14648438 31.02929688 C-9.11110643 28.35236595 -9.06174189 25.67643162 -9 23 C-10.44122613 23.59522337 -11.87785868 24.20157619 -13.3125 24.8125 C-14.11300781 25.14894531 -14.91351563 25.48539063 -15.73828125 25.83203125 C-18.00344549 27.00177928 -19.41725752 28.01142611 -21 30 C-21.25069913 32.62570704 -21.25069913 32.62570704 -21 35 C-19.33333333 35.33333333 -17.66666667 35.66666667 -16 36 C-14.33333333 36.33333333 -12.66666667 36.66666667 -11 37 C-10.6875 39.6875 -10.6875 39.6875 -11 43 C-15.90374856 48.80707066 -15.90374856 48.80707066 -20.20703125 49.203125 C-29.29667745 49.36665687 -29.29667745 49.36665687 -33 46 C-36.00660671 41.54192798 -36.88204385 37.28235251 -36 32 C-33.66394182 24.85984479 -29.41210213 20.77166841 -22.75 17.3125 C-18.22497779 15.72874223 -13.7173738 14.80679431 -9 14 C-9.33 11.69 -9.66 9.38 -10 7 C-13.01031744 6.06576355 -13.86650268 5.95550089 -17 7 C-17.80212628 8.87387216 -17.80212628 8.87387216 -18.1875 11.0625 C-18.42533203 12.16271484 -18.42533203 12.16271484 -18.66796875 13.28515625 C-18.83232422 14.13400391 -18.83232422 14.13400391 -19 15 C-25.26535627 16.35135135 -25.26535627 16.35135135 -28.875 14.625 C-31 13 -31 13 -32 12 C-32.43225131 8.28263871 -32.10451949 6.22210391 -30.5 2.8125 C-23.09150782 -5.5220537 -9.25946697 -4.96042873 0 0 Z " fill="#F0730B" transform="translate(114,46)"/>
<path d="M0 0 C6.2840274 6.72449661 4.00308108 18.82200277 3.91308594 27.47143555 C3.89264596 34.31955778 4.83282935 40.49848806 7 47 C6.505 47.99 6.505 47.99 6 49 C4.06318839 49.08107583 2.1254066 49.13922475 0.1875 49.1875 C-0.89144531 49.22230469 -1.97039062 49.25710937 -3.08203125 49.29296875 C-6 49 -6 49 -7.65039062 47.80078125 C-9.43387045 45.42108747 -9.42626635 43.85118418 -9.51171875 40.89453125 C-9.56489258 39.42016602 -9.56489258 39.42016602 -9.61914062 37.91601562 C-9.64169922 36.89185547 -9.66425781 35.86769531 -9.6875 34.8125 C-9.73874023 33.25885742 -9.73874023 33.25885742 -9.79101562 31.67382812 C-9.87352642 29.1159934 -9.94266572 26.55850277 -10 24 C-11.46224799 24.42423244 -12.91973412 24.86490245 -14.375 25.3125 C-15.59316406 25.67794922 -15.59316406 25.67794922 -16.8359375 26.05078125 C-19.33184629 26.91368185 -19.33184629 26.91368185 -21 30 C-21.16713569 32.62531524 -21.16713569 32.62531524 -21 35 C-17.92677456 35.91058531 -15.19902639 36.08886184 -12 36 C-11.1875 39.1875 -11.1875 39.1875 -11 43 C-13.63574859 46.27687662 -15.88406764 48.76785634 -20.171875 49.23828125 C-25.95507224 49.40476723 -29.55234602 49.11407993 -34 45 C-36.66575432 40.75902721 -36.5340651 35.85826958 -36 31 C-34.17634416 25.52903249 -30.77726604 22.06678019 -26 19 C-20.55129358 16.50893683 -14.97884883 14.64636204 -9 14 C-9.33 11.36 -9.66 8.72 -10 6 C-14.34184202 6.18464366 -14.34184202 6.18464366 -18 8 C-18.144375 9.155 -18.28875 10.31 -18.4375 11.5 C-18.623125 12.655 -18.80875 13.81 -19 15 C-21.7798816 16.3899408 -23.9186326 16.18488204 -27 16 C-30.7 14.6 -30.7 14.6 -32 12 C-32.42438493 8.26541262 -32.1125553 6.23918001 -30.5 2.8125 C-22.99425758 -5.63146022 -9.40341396 -4.78719256 0 0 Z " fill="#F18E16" transform="translate(200,46)"/>
<path d="M0 0 C-0.0721875 0.78076904 -0.144375 1.56153809 -0.21875 2.3659668 C-1.08831642 12.86492459 -1.08380691 23.28575394 -1 33.8125 C-0.97346622 37.23567325 -0.95352621 40.65879469 -0.9375 44.08203125 C-0.92920166 44.86415482 -0.92090332 45.64627838 -0.91235352 46.45210266 C-0.90381525 48.30161283 -0.94657926 50.15124177 -1 52 C-1.33 52.33 -1.66 52.66 -2 53 C-3.92578125 52.94921875 -3.92578125 52.94921875 -6.3125 52.6875 C-7.09238281 52.60886719 -7.87226563 52.53023437 -8.67578125 52.44921875 C-11.08207271 51.98413721 -12.87133832 51.19341444 -15 50 C-15.99 50.66 -16.98 51.32 -18 52 C-24.32031685 53.41662274 -29.18205867 52.98913915 -35 50 C-37.92184703 47.15119914 -39.31545921 44.97109532 -40 41 C-40.00426551 38.54502408 -39.94338684 36.08967564 -39.84375 33.63671875 C-39.81776733 32.92651077 -39.79178467 32.2163028 -39.76501465 31.48457336 C-39.65427038 28.45851116 -39.53049475 25.43302484 -39.40673828 22.4074707 C-39.3180869 20.19238405 -39.23697282 17.97710637 -39.15625 15.76171875 C-39.11099182 14.7519825 -39.11099182 14.7519825 -39.06481934 13.72184753 C-38.90765428 9.3604832 -39.37387839 5.30800375 -40 1 C-38.43966377 -0.56033623 -36.91052864 -0.20707559 -34.75 -0.25 C-30.68780609 -0.20479275 -28.2241093 0.36209239 -25 3 C-21.70174697 7.94737954 -22.61265498 12.95132547 -23.67578125 18.57421875 C-24.08376953 20.48654297 -24.08376953 20.48654297 -24.5 22.4375 C-26.46872028 31.1600319 -26.46872028 31.1600319 -26 40 C-23.24301816 42.28138945 -23.24301816 42.28138945 -20.4375 41.8125 C-17.66744883 41.16627558 -17.66744883 41.16627558 -16 38 C-15.87643237 35.50227396 -15.86318623 33.12026856 -15.9453125 30.62890625 C-15.97060417 29.15300415 -15.99532615 27.6770922 -16.01953125 26.20117188 C-16.06917099 23.87916256 -16.12513898 21.55766667 -16.19189453 19.23608398 C-16.25238476 16.9919919 -16.28786626 14.7485545 -16.3203125 12.50390625 C-16.34723175 11.81212784 -16.374151 11.12034943 -16.40188599 10.40760803 C-16.43664434 7.06062725 -16.23939773 5.31655283 -14.19482422 2.61303711 C-9.58567844 -0.77435178 -5.4226545 -1.29287989 0 0 Z " fill="#FBBC1C" transform="translate(365,43)"/>
<path d="M0 0 C4.13830989 0.30096799 6.51847024 0.67898016 10 3 C11.9539529 2.49737501 11.9539529 2.49737501 14 1.5 C19.60219667 -0.5413233 24.4495501 -0.12326734 30 2 C32.79079112 4.21910924 34.40506141 6.81012282 36 10 C36.1450699 12.77203162 36.23429755 15.52284911 36.28125 18.296875 C36.30886414 19.53645966 36.30886414 19.53645966 36.33703613 20.80108643 C36.395864 23.4506509 36.44860046 26.10028165 36.5 28.75 C36.5679326 32.22408586 36.64171903 35.69798042 36.71875 39.171875 C36.73232544 39.96583679 36.74590088 40.75979858 36.7598877 41.57781982 C36.85380658 45.81310874 37.17787302 49.82778879 38 54 C32.32030747 55.27503302 29.09718179 54.84265908 24 52 C20.47052824 48.23523013 19.728188 44.60233833 19.765625 39.4921875 C20.04925432 36.4762624 20.75382628 33.68541927 21.5 30.75 C23.00744073 24.59820616 24.06472257 18.31526623 23 12 C20.16426737 9.66224971 20.16426737 9.66224971 16.875 10.25 C15.92625 10.4975 14.9775 10.745 14 11 C12.48571222 14.02857556 12.94049638 17.14167722 13.0078125 20.45703125 C13.02533608 21.97720678 13.04224365 23.49738952 13.05859375 25.01757812 C13.08950293 27.41402088 13.12495357 29.81010379 13.17138672 32.20629883 C13.213867 34.51908785 13.23721003 36.83145748 13.2578125 39.14453125 C13.27643341 39.85615921 13.29505432 40.56778717 13.3142395 41.30097961 C13.33689102 45.71990713 12.76628523 48.51467594 10 52 C5.88320625 53.92117042 2.48159589 54.06875531 -2 54 C-2.05058145 46.63105185 -2.08568333 39.26214822 -2.10986328 31.89306641 C-2.11994011 29.38458585 -2.13360179 26.87611708 -2.15087891 24.36767578 C-2.17505337 20.76852512 -2.18646612 17.16952933 -2.1953125 13.5703125 C-2.20563507 12.44319855 -2.21595764 11.31608459 -2.22659302 10.15481567 C-2.22674408 9.11388763 -2.22689514 8.07295959 -2.22705078 7.00048828 C-2.231492 6.08115509 -2.23593323 5.1618219 -2.24050903 4.21463013 C-2 2 -2 2 0 0 Z " fill="#FCC217" transform="translate(371,42)"/>
<path d="M0 0 C3.69966837 8.82661998 6.87629966 17.44854712 8 27 C8.31966139 28.66934283 8.64731066 30.3373217 9 32 C7.27473958 32.71614583 5.54947917 33.43229167 3.82421875 34.1484375 C1.73466068 35.06806692 1.73466068 35.06806692 -1 37 C0.485 37.495 0.485 37.495 2 38 C1.67 38.99 1.34 39.98 1 41 C-0.859375 40.91015625 -0.859375 40.91015625 -3 40 C-4.265625 37.05859375 -4.265625 37.05859375 -5.25 33.4375 C-5.58515625 32.23996094 -5.9203125 31.04242188 -6.265625 29.80859375 C-6.50796875 28.88175781 -6.7503125 27.95492187 -7 27 C-6.99111755 27.61974197 -6.98223511 28.23948395 -6.9730835 28.87800598 C-6.88471377 35.31774692 -6.82430895 41.75731617 -6.78027344 48.19750977 C-6.76013553 50.6022033 -6.7328233 53.00684775 -6.69824219 55.41137695 C-6.64982123 58.86421814 -6.62705289 62.31641298 -6.609375 65.76953125 C-6.58872986 66.84773636 -6.56808472 67.92594147 -6.54681396 69.03681946 C-6.54651184 70.03763046 -6.54620972 71.03844147 -6.54589844 72.06958008 C-6.53701599 72.95116287 -6.52813354 73.83274567 -6.51898193 74.74104309 C-7 77 -7 77 -8.89898682 78.77397156 C-12.2714929 80.74196891 -15.11821383 80.74956218 -19 81 C-19.66 80.67 -20.32 80.34 -21 80 C-20.92935333 79.43674011 -20.85870667 78.87348022 -20.78591919 78.29315186 C-19.9510971 70.95989551 -19.85495202 63.70313809 -19.8671875 56.328125 C-19.86623077 55.04693787 -19.86527405 53.76575073 -19.86428833 52.44573975 C-19.86282513 49.75303929 -19.86492255 47.06037231 -19.86962891 44.36767578 C-19.87534848 40.92929064 -19.87202441 37.49098321 -19.86605644 34.05260086 C-19.86156366 30.74860276 -19.86471285 27.4446253 -19.8671875 24.140625 C-19.86516327 22.91241028 -19.86313904 21.68419556 -19.86105347 20.41876221 C-19.86420563 19.27026794 -19.86735779 18.12177368 -19.87060547 16.93847656 C-19.87140106 15.93383362 -19.87219666 14.92919067 -19.87301636 13.894104 C-19.94000614 10.92402658 -19.94000614 10.92402658 -20.5774231 7.73919678 C-21 5 -21 5 -19.890625 3.234375 C-13.95637515 -0.64005259 -6.78331274 -1.65814311 0 0 Z " fill="#E64B08" transform="translate(44,15)"/>
<path d="M0 0 C3.5625 1.1875 3.5625 1.1875 6.5625 3.1875 C8.2461397 2.42821151 9.92844113 1.66549511 11.59765625 0.875 C15.23108532 -0.396339 17.83701584 0.28617319 21.5625 1.1875 C25.6088043 3.65046783 27.18701701 5.71413719 28.5625 10.1875 C28.75052195 12.96082384 28.84255773 15.60718391 28.8125 18.375 C28.82410156 19.46071289 28.82410156 19.46071289 28.8359375 20.56835938 C28.81597222 25.93402778 28.81597222 25.93402778 26.5625 28.1875 C24.50390625 28.26953125 24.50390625 28.26953125 22.125 28 C21.34253906 27.92394531 20.56007813 27.84789063 19.75390625 27.76953125 C17.03741237 27.04803822 16.06998679 26.58174372 14.5625 24.1875 C14.48828125 20.83203125 14.48828125 20.83203125 14.875 17 C14.99488281 15.72769531 15.11476563 14.45539062 15.23828125 13.14453125 C15.34527344 12.16871094 15.45226562 11.19289063 15.5625 10.1875 C13.5825 10.1875 11.6025 10.1875 9.5625 10.1875 C8.28812359 14.10606432 8.40978084 18.05550588 8.38671875 22.12890625 C8.36353573 23.69727927 8.33941903 25.26563872 8.31445312 26.83398438 C8.27924905 29.29851597 8.24993202 31.76254162 8.23657227 34.22729492 C8.22113025 36.611779 8.18097043 38.99480588 8.13671875 41.37890625 C8.13862717 42.11645645 8.14053558 42.85400665 8.14250183 43.61390686 C8.02007332 48.71855913 8.02007332 48.71855913 5.65600586 51.14135742 C2.24549066 52.8456207 -0.63504474 52.94218031 -4.4375 53.1875 C-5.0975 52.8575 -5.7575 52.5275 -6.4375 52.1875 C-6.1075 35.0275 -5.7775 17.8675 -5.4375 0.1875 C-3.4375 -0.8125 -3.4375 -0.8125 0 0 Z " fill="#F9AC16" transform="translate(293.4375,42.8125)"/>
<path d="M0 0 C1.13470224 3.40410672 0.73665033 4.56878467 0 8 C-0.14352249 10.12928664 -0.24564505 12.26158653 -0.31640625 14.39453125 C-0.37924805 16.19760742 -0.37924805 16.19760742 -0.44335938 18.03710938 C-0.48267578 19.28298828 -0.52199219 20.52886719 -0.5625 21.8125 C-0.62727539 23.71032227 -0.62727539 23.71032227 -0.69335938 25.64648438 C-0.7992447 28.76421889 -0.90132405 31.88203035 -1 35 C-1.33 35 -1.66 35 -2 35 C-2.66 25.1 -3.32 15.2 -4 5 C-6.64 4.67 -9.28 4.34 -12 4 C-11.01 5.485 -11.01 5.485 -10 7 C-9.875 10.1875 -9.875 10.1875 -10 13 C-10.99 13.495 -10.99 13.495 -12 14 C-12.01981934 15.25135742 -12.03963867 16.50271484 -12.06005859 17.79199219 C-12.13615293 22.436402 -12.22486463 27.08050008 -12.31738281 31.72460938 C-12.35565669 33.73431238 -12.39051236 35.74408351 -12.421875 37.75390625 C-12.46755991 40.6434768 -12.52554887 43.53257896 -12.5859375 46.421875 C-12.60326431 47.76895538 -12.60326431 47.76895538 -12.62094116 49.14324951 C-12.64081085 49.98381897 -12.66068054 50.82438843 -12.68115234 51.69042969 C-12.69447601 52.42767273 -12.70779968 53.16491577 -12.7215271 53.92449951 C-13 56 -13 56 -15 60 C-15 43.5 -15 27 -15 10 C-20.48923657 10.50878634 -20.48923657 10.50878634 -22.75 12.125 C-27.23538552 18.85307828 -26.40568901 27.25417035 -26 35 C-25.55398984 37.29992046 -25.55398984 37.29992046 -25 39 C-23.700625 38.979375 -22.40125 38.95875 -21.0625 38.9375 C-19.70834367 38.91600546 -18.35243917 38.92851801 -17 39 C-16 40 -16 40 -15.9453125 41.92578125 C-16.24656108 45.92714827 -16.48513657 48.34033123 -19 51.5625 C-23.11100862 53.53235829 -26.51995957 53.6679333 -31 53 C-35.23879239 51.24919445 -37.1400246 49.1628021 -39 45 C-42.53113857 33.82154357 -41.29195166 22.37674507 -36 12 C-32.97090571 6.54763028 -29.72713133 3.13970132 -23.63671875 1.27734375 C-18.39078038 0.07531538 -14.33971111 0.14564622 -9 1 C-5.35816264 -0.71380582 -4.01971475 -1.11658743 0 0 Z M-14 7 C-13.34 7.66 -12.68 8.32 -12 9 C-11.67 8.34 -11.34 7.68 -11 7 C-11.99 7 -12.98 7 -14 7 Z " fill="#F17F0C" transform="translate(162,42)"/>
<path d="M0 0 C0 0.66 0 1.32 0 2 C2.475 2.495 2.475 2.495 5 3 C5.625 5.375 5.625 5.375 6 8 C3.56949456 10.43050544 2.33201357 10.39117599 -1 11 C-4.10468758 12.00398339 -7.17846487 13.08123271 -10.2578125 14.16015625 C-13 15 -13 15 -16 15 C-16 15.66 -16 16.32 -16 17 C-16.639375 17.12375 -17.27875 17.2475 -17.9375 17.375 C-18.618125 17.58125 -19.29875 17.7875 -20 18 C-20.33 18.66 -20.66 19.32 -21 20 C-21.66 20 -22.32 20 -23 20 C-23.33 21.32 -23.66 22.64 -24 24 C-23.34 24.33 -22.68 24.66 -22 25 C-22.66 25.66 -23.32 26.32 -24 27 C-24.99 27 -25.98 27 -27 27 C-27 28.32 -27 29.64 -27 31 C-23.26360784 29.75453595 -22.81243487 28.36595047 -21 25 C-19.68 25.66 -18.36 26.32 -17 27 C-17.33 27.99 -17.66 28.98 -18 30 C-17.34 30.33 -16.68 30.66 -16 31 C-16.061875 29.741875 -16.12375 28.48375 -16.1875 27.1875 C-16.20826011 23.27768014 -16.20826011 23.27768014 -14.5 21 C-14.005 20.67 -13.51 20.34 -13 20 C-12.01 20.33 -11.02 20.66 -10 21 C-10.66 21.556875 -11.32 22.11375 -12 22.6875 C-14.25492211 24.84062308 -14.25492211 24.84062308 -14.25 27.75 C-14.12625 28.86375 -14.12625 28.86375 -14 30 C-12.33333333 30.33333333 -10.66666667 30.66666667 -9 31 C-7.33333333 31.33333333 -5.66666667 31.66666667 -4 32 C-3.6875 34.6875 -3.6875 34.6875 -4 38 C-8.90374856 43.80707066 -8.90374856 43.80707066 -13.20703125 44.203125 C-22.29667745 44.36665687 -22.29667745 44.36665687 -26 41 C-29.00660671 36.54192798 -29.88204385 32.28235251 -29 27 C-26.66394182 19.85984479 -22.41210213 15.77166841 -15.75 12.3125 C-11.22497779 10.72874223 -6.7173738 9.80679431 -2 9 C-2.33 6.69 -2.66 4.38 -3 2 C-6.01031744 1.06576355 -6.86650268 0.95550089 -10 2 C-10.80212628 3.87387216 -10.80212628 3.87387216 -11.1875 6.0625 C-11.42533203 7.16271484 -11.42533203 7.16271484 -11.66796875 8.28515625 C-11.83232422 9.13400391 -11.83232422 9.13400391 -12 10 C-12.66 10 -13.32 10 -14 10 C-14.3125 6.75 -14.3125 6.75 -14 3 C-9.23787516 -1.89083092 -6.23494658 -2.35542427 0 0 Z " fill="#F0710A" transform="translate(107,51)"/>
<path d="M0 0 C0.33 0.66 0.66 1.32 1 2 C1.79664062 1.96519531 2.59328125 1.93039063 3.4140625 1.89453125 C14.4447013 1.61272661 14.4447013 1.61272661 19 5 C20.875 7.6875 20.875 7.6875 22 10 C21.01 11.65 20.02 13.3 19 15 C18.67 13.68 18.34 12.36 18 11 C17.236875 11.061875 16.47375 11.12375 15.6875 11.1875 C12.49660032 10.96487909 12.03893855 10.31697562 10 8 C6.94259281 6.60779792 6.94259281 6.60779792 3.875 8.375 C1.18400516 9.72678022 1.18400516 9.72678022 0 11 C-0.23075082 12.34747084 -0.41153063 13.70377565 -0.5625 15.0625 C-0.706875 16.361875 -0.85125 17.66125 -1 19 C-8.32732733 18.3993994 -8.32732733 18.3993994 -11 16.8125 C-12.54888158 14.00515214 -12.43408956 12.16265254 -12 9 C-9.97466637 4.69616603 -8.11650987 2.77405426 -3.75 1.125 C-1.89375 0.568125 -1.89375 0.568125 0 0 Z " fill="#EB620C" transform="translate(94,43)"/>
<path d="M0 0 C1.13470224 3.40410672 0.73665033 4.56878467 0 8 C-0.14352249 10.12928664 -0.24564505 12.26158653 -0.31640625 14.39453125 C-0.37924805 16.19760742 -0.37924805 16.19760742 -0.44335938 18.03710938 C-0.48267578 19.28298828 -0.52199219 20.52886719 -0.5625 21.8125 C-0.62727539 23.71032227 -0.62727539 23.71032227 -0.69335938 25.64648438 C-0.7992447 28.76421889 -0.90132405 31.88203035 -1 35 C-1.33 35 -1.66 35 -2 35 C-2.66 25.1 -3.32 15.2 -4 5 C-6.64 4.67 -9.28 4.34 -12 4 C-11.01 5.485 -11.01 5.485 -10 7 C-9.875 10.1875 -9.875 10.1875 -10 13 C-10.99 13.495 -10.99 13.495 -12 14 C-12.01981934 15.25135742 -12.03963867 16.50271484 -12.06005859 17.79199219 C-12.13615293 22.436402 -12.22486463 27.08050008 -12.31738281 31.72460938 C-12.35565669 33.73431238 -12.39051236 35.74408351 -12.421875 37.75390625 C-12.46755991 40.6434768 -12.52554887 43.53257896 -12.5859375 46.421875 C-12.60326431 47.76895538 -12.60326431 47.76895538 -12.62094116 49.14324951 C-12.64081085 49.98381897 -12.66068054 50.82438843 -12.68115234 51.69042969 C-12.69447601 52.42767273 -12.70779968 53.16491577 -12.7215271 53.92449951 C-13 56 -13 56 -15 60 C-15 43.5 -15 27 -15 10 C-20.48923657 10.50878634 -20.48923657 10.50878634 -22.75 12.125 C-24.58820692 14.88231038 -25.21679556 17.80693572 -26 21 C-26.33 21 -26.66 21 -27 21 C-27 18.03 -27 15.06 -27 12 C-26.01 12 -25.02 12 -24 12 C-24 11.01 -24 10.02 -24 9 C-23.34 9 -22.68 9 -22 9 C-21.67 8.01 -21.34 7.02 -21 6 C-20.01 6.33 -19.02 6.66 -18 7 C-18 6.34 -18 5.68 -18 5 C-20.90546601 4.1496197 -23.05548766 3.56978734 -25.88671875 4.859375 C-27.5927036 5.90370954 -29.29646643 6.95167165 -31 8 C-31.66 7.67 -32.32 7.34 -33 7 C-28.84019113 3.10856589 -24.56785477 1.01872422 -19 0 C-16.35905915 0.10842572 -13.86248687 0.40622215 -11.26171875 0.87109375 C-6.76217249 1.12754457 -4.84677446 -1.34632624 0 0 Z M-14 7 C-13.34 7.66 -12.68 8.32 -12 9 C-11.67 8.34 -11.34 7.68 -11 7 C-11.99 7 -12.98 7 -14 7 Z " fill="#E57D28" transform="translate(162,42)"/>
<path d="M0 0 C-0.33 0.99 -0.66 1.98 -1 3 C-1.99 3 -2.98 3 -4 3 C-4.33 3.66 -4.66 4.32 -5 5 C-5.66 5 -6.32 5 -7 5 C-7 5.99 -7 6.98 -7 8 C-7.99 8 -8.98 8 -10 8 C-9.98839844 8.63808594 -9.97679687 9.27617188 -9.96484375 9.93359375 C-9.95582031 10.75988281 -9.94679687 11.58617187 -9.9375 12.4375 C-9.92589844 13.26121094 -9.91429687 14.08492187 -9.90234375 14.93359375 C-10 17 -10 17 -11 18 C-11.20768229 19.47396739 -11.36716017 20.9549126 -11.5 22.4375 C-11.89041096 26.78082192 -11.89041096 26.78082192 -13 29 C-16.0625 29.625 -16.0625 29.625 -19 30 C-19.13277344 29.18015625 -19.26554687 28.3603125 -19.40234375 27.515625 C-19.57894531 26.43796875 -19.75554687 25.3603125 -19.9375 24.25 C-20.11152344 23.18265625 -20.28554687 22.1153125 -20.46484375 21.015625 C-20.90536854 18.12584189 -20.90536854 18.12584189 -21.6796875 15.91796875 C-22.28361573 12.30176435 -20.44478781 9.5469751 -18.78515625 6.421875 C-14.16240429 0.15030779 -7.35521405 -2.07864745 0 0 Z " fill="#F07109" transform="translate(145,46)"/>
<path d="M0 0 C-0.62648438 0.02578125 -1.25296875 0.0515625 -1.8984375 0.078125 C-2.71570313 0.13484375 -3.53296875 0.1915625 -4.375 0.25 C-5.18710937 0.29640625 -5.99921875 0.3428125 -6.8359375 0.390625 C-9.16138381 0.79963907 -9.16138381 0.79963907 -10.3515625 2.921875 C-11.27326786 5.03124196 -11.27326786 5.03124196 -10 7 C-10.639375 7.185625 -11.27875 7.37125 -11.9375 7.5625 C-12.618125 8.036875 -13.29875 8.51125 -14 9 C-14.40729228 11.32156597 -14.74438677 13.6568787 -15 16 C-17.7798816 17.3899408 -19.9186326 17.18488204 -23 17 C-26.7 15.6 -26.7 15.6 -28 13 C-28.12301827 8.44832405 -27.90871028 5.01256289 -24.8125 1.5625 C-17.57863433 -2.45631426 -7.50810091 -4.5264149 0 0 Z " fill="#F19A1F" transform="translate(274,45)"/>
<path d="M0 0 C0.33 0 0.66 0 1 0 C1.02505615 0.68924561 1.0501123 1.37849121 1.07592773 2.08862305 C1.70059687 20.06417639 1.70059687 20.06417639 3 38 C-2.50948831 41.36891663 -6.40872642 42.70620788 -13 42 C-16.93686937 38.07088037 -18.74295135 33.39041922 -20.75 28.3125 C-21.06582031 27.54099609 -21.38164063 26.76949219 -21.70703125 25.97460938 C-24 20.29181886 -24 20.29181886 -24 18 C-23.01 18.33 -22.02 18.66 -21 19 C-19.90234375 21.87109375 -19.90234375 21.87109375 -18.9375 25.4375 C-17.79624454 30.19092292 -17.79624454 30.19092292 -15 34 C-15 34.99 -15 35.98 -15 37 C-14.34 37 -13.68 37 -13 37 C-13 36.34 -13 35.68 -13 35 C-9.535 34.505 -9.535 34.505 -6 34 C-6 33.34 -6 32.68 -6 32 C-5.35184326 31.42266113 -4.70368652 30.84532227 -4.03588867 30.25048828 C-1.42670804 27.3662783 -1.47887219 25.83526745 -1.42578125 21.9921875 C-1.38420898 20.26548828 -1.38420898 20.26548828 -1.34179688 18.50390625 C-1.33212891 17.30636719 -1.32246094 16.10882813 -1.3125 14.875 C-1.27054111 12.49732931 -1.22514632 10.11971595 -1.17578125 7.7421875 C-1.16458252 6.6888623 -1.15338379 5.63553711 -1.1418457 4.55029297 C-1 2 -1 2 0 0 Z " fill="#E26E1D" transform="translate(72,54)"/>
<path d="M0 0 C0 0.33 0 0.66 0 1 C2.475 1.495 2.475 1.495 5 2 C2 4 2 4 -1 5 C-2.69882448 7.49759982 -2.69882448 7.49759982 -4 10 C-3.34 10.33 -2.68 10.66 -2 11 C-3.32 12.65 -4.64 14.3 -6 16 C-6 14.02 -6 12.04 -6 10 C-7.95766281 9.91917906 -9.91626728 9.86089222 -11.875 9.8125 C-12.96554688 9.77769531 -14.05609375 9.74289063 -15.1796875 9.70703125 C-16.57574219 9.85205078 -16.57574219 9.85205078 -18 10 C-18.99 11.485 -18.99 11.485 -20 13 C-21.65 12.67 -23.3 12.34 -25 12 C-23.99040734 7.28856759 -22.22951359 4.14991053 -18.55078125 1.125 C-12.850416 -1.38909677 -6.09042347 -0.39481737 0 0 Z " fill="#F07B11" transform="translate(227,16)"/>
<path d="M0 0 C0.33 0 0.66 0 1 0 C1.21769098 4.74993332 1.41441558 9.50010837 1.59204102 14.25170898 C1.65533869 15.86685184 1.72428805 17.48178377 1.79907227 19.09643555 C1.90579054 21.42203445 1.99193211 23.74764274 2.07421875 26.07421875 C2.11157639 26.79212082 2.14893402 27.51002289 2.18742371 28.24967957 C2.32039997 32.71779452 1.81588125 35.48395369 -1 39 C-5.38173536 41.04480983 -7.97606025 41 -13 41 C-13 36.71 -13 32.42 -13 28 C-10.69 28.33 -8.38 28.66 -6 29 C-6 29.66 -6 30.32 -6 31 C-4.68 31.33 -3.36 31.66 -2 32 C-1.97494385 31.06615479 -1.9498877 30.13230957 -1.92407227 29.17016602 C-1.82913072 25.71674811 -1.72988742 22.2635104 -1.62768555 18.81030273 C-1.58428187 17.31360731 -1.54261087 15.81686061 -1.50268555 14.32006836 C-1.44511384 12.17285688 -1.38138284 10.02590479 -1.31640625 7.87890625 C-1.27974854 6.5854126 -1.24309082 5.29191895 -1.20532227 3.95922852 C-1 1 -1 1 0 0 Z " fill="#FAC12C" transform="translate(382,55)"/>
<path d="M0 0 C0.625 1.8125 0.625 1.8125 1 4 C-1 7 -1 7 -3.3828125 7.51171875 C-4.28773437 7.56972656 -5.19265625 7.62773438 -6.125 7.6875 C-7.03507812 7.75324219 -7.94515625 7.81898437 -8.8828125 7.88671875 C-9.93082031 7.94279297 -9.93082031 7.94279297 -11 8 C-11 8.66 -11 9.32 -11 10 C-12.2065625 10.556875 -12.2065625 10.556875 -13.4375 11.125 C-16.13237187 12.69222824 -16.13237187 12.69222824 -16.5546875 14.97265625 C-16.78761738 16.97373565 -16.90104138 18.98784139 -17 21 C-17.99 20.67 -18.98 20.34 -20 20 C-19.67 19.01 -19.34 18.02 -19 17 C-19.99 16.67 -20.98 16.34 -22 16 C-22.433125 16.825 -22.86625 17.65 -23.3125 18.5 C-24.1478125 19.7375 -24.1478125 19.7375 -25 21 C-25.99 21 -26.98 21 -28 21 C-28.33 21.66 -28.66 22.32 -29 23 C-28.125 17.125 -28.125 17.125 -27 16 C-26.3162955 14.67532254 -25.65035814 13.34136367 -25 12 C-24.67 11.34 -24.34 10.68 -24 10 C-23.34 10 -22.68 10 -22 10 C-21.67 9.01 -21.34 8.02 -21 7 C-19.68 7 -18.36 7 -17 7 C-17 6.34 -17 5.68 -17 5 C-14.54285453 4.16301614 -12.08441143 3.33027576 -9.625 2.5 C-8.92632812 2.26152344 -8.22765625 2.02304687 -7.5078125 1.77734375 C-2.2265625 0 -2.2265625 0 0 0 Z " fill="#EE6A09" transform="translate(108,61)"/>
<path d="M0 0 C13.79726116 -0.68479054 13.79726116 -0.68479054 19 3 C22.64995492 7.58830627 23.50207084 10.66427013 23.5390625 16.48828125 C23.55085541 17.19091599 23.56264832 17.89355072 23.57479858 18.61747742 C23.60986233 20.84937904 23.61920032 23.08034646 23.625 25.3125 C23.64675345 28.24633665 23.6808771 31.17972107 23.7265625 34.11328125 C23.73617004 34.81067413 23.74577759 35.50806702 23.75567627 36.22659302 C23.87281244 41.40595118 24.7028908 46.00557527 26 51 C24.19728218 52.80271782 21.55591251 52.21502284 19.125 52.25 C17.52011719 52.28867188 17.52011719 52.28867188 15.8828125 52.328125 C13 52 13 52 11.33813477 50.81225586 C9.51415576 48.3420139 9.65648753 46.72525215 9.70703125 43.67578125 C9.71669922 42.64775391 9.72636719 41.61972656 9.73632812 40.56054688 C9.76146484 39.48869141 9.78660156 38.41683594 9.8125 37.3125 C9.82603516 36.22904297 9.83957031 35.14558594 9.85351562 34.02929688 C9.88889357 31.35236595 9.93825811 28.67643162 10 26 C7.36 26.66 4.72 27.32 2 28 C2 27.34 2 26.68 2 26 C5.47325181 24.8422494 8.36067448 24.93133348 12 25 C11.98428955 25.86951294 11.98428955 25.86951294 11.96826172 26.7565918 C11.92651385 29.40018321 11.90061462 32.04370505 11.875 34.6875 C11.85824219 35.59951172 11.84148437 36.51152344 11.82421875 37.45117188 C11.79063831 42.06848227 11.76443815 45.81932331 14 50 C17.3 50 20.6 50 24 50 C24 49.01 24 48.02 24 47 C23.01 47 22.02 47 21 47 C21.0314209 45.41131104 21.0314209 45.41131104 21.06347656 43.79052734 C21.13613385 39.84340043 21.18189254 35.89633208 21.21972656 31.94873047 C21.23978369 30.24355106 21.26703657 28.53843994 21.30175781 26.83349609 C21.35053861 24.37580476 21.37302719 21.91902634 21.390625 19.4609375 C21.41127014 18.70444916 21.43191528 17.94796082 21.45318604 17.16854858 C21.45535302 12.00224404 20.40765728 9.10094603 17 5 C13.34855328 2.92903022 9.83685358 2.64858375 5.6875 2.375 C4.08455078 2.26285156 4.08455078 2.26285156 2.44921875 2.1484375 C1.64097656 2.09945312 0.83273438 2.05046875 0 2 C0 1.34 0 0.68 0 0 Z " fill="#DF8431" transform="translate(95,43)"/>
<path d="M0 0 C0 0.66 0 1.32 0 2 C2.475 2.495 2.475 2.495 5 3 C5.625 5.375 5.625 5.375 6 8 C3.56949456 10.43050544 2.33201357 10.39117599 -1 11 C-4.10468758 12.00398339 -7.17846487 13.08123271 -10.2578125 14.16015625 C-13 15 -13 15 -16 15 C-16 15.66 -16 16.32 -16 17 C-16.639375 17.12375 -17.27875 17.2475 -17.9375 17.375 C-18.618125 17.58125 -19.29875 17.7875 -20 18 C-20.33 18.66 -20.66 19.32 -21 20 C-21.66 20 -22.32 20 -23 20 C-23.33 21.32 -23.66 22.64 -24 24 C-23.34 24.33 -22.68 24.66 -22 25 C-22.66 25.66 -23.32 26.32 -24 27 C-24.99 27 -25.98 27 -27 27 C-27.33 29.31 -27.66 31.62 -28 34 C-28.33 34 -28.66 34 -29 34 C-29.49714688 28.03423743 -28.38315937 23.97523437 -25 19 C-18.40192813 12.40192813 -10.9088066 10.52363896 -2 9 C-2.33 6.69 -2.66 4.38 -3 2 C-6.01031744 1.06576355 -6.86650268 0.95550089 -10 2 C-10.80212628 3.87387216 -10.80212628 3.87387216 -11.1875 6.0625 C-11.42533203 7.16271484 -11.42533203 7.16271484 -11.66796875 8.28515625 C-11.83232422 9.13400391 -11.83232422 9.13400391 -12 10 C-12.66 10 -13.32 10 -14 10 C-14.3125 6.75 -14.3125 6.75 -14 3 C-9.23787516 -1.89083092 -6.23494658 -2.35542427 0 0 Z " fill="#EC6E0C" transform="translate(107,51)"/>
<path d="M0 0 C1.3125 2 1.3125 2 1.3125 4 C-0.0075 3.67 -1.3275 3.34 -2.6875 3 C-2.6875 2.34 -2.6875 1.68 -2.6875 1 C-3.6775 1 -4.6675 1 -5.6875 1 C-5.6875 1.99 -5.6875 2.98 -5.6875 4 C-6.3475 4 -7.0075 4 -7.6875 4 C-7.6875 4.66 -7.6875 5.32 -7.6875 6 C-7.0275 6 -6.3675 6 -5.6875 6 C-6.07327055 13.74201581 -7.11138772 20.67671225 -9.6875 28 C-10.69550909 24.86397172 -10.53766379 23.13641507 -9.6875 20 C-9.5469121 17.96147547 -9.46762007 15.91814464 -9.4375 13.875 C-9.41171875 12.82054688 -9.3859375 11.76609375 -9.359375 10.6796875 C-9.46765625 9.79539062 -9.5759375 8.91109375 -9.6875 8 C-12.51467213 5.66703749 -12.51467213 5.66703749 -15.75 6.25 C-18.786959 6.7593244 -18.786959 6.7593244 -20.6875 9 C-20.6875 7.68 -20.6875 6.36 -20.6875 5 C-20.0275 5 -19.3675 5 -18.6875 5 C-18.6875 4.34 -18.6875 3.68 -18.6875 3 C-17.883125 2.87625 -17.07875 2.7525 -16.25 2.625 C-15.404375 2.41875 -14.55875 2.2125 -13.6875 2 C-13.3575 1.34 -13.0275 0.68 -12.6875 0 C-15.6575 0 -18.6275 0 -21.6875 0 C-15.87998359 -5.80751641 -6.42635891 -4.78240663 0 0 Z " fill="#F7C52D" transform="translate(403.6875,46)"/>
<path d="M0 0 C2.75 0.875 2.75 0.875 4.75 1.875 C4.75 2.865 4.75 3.855 4.75 4.875 C3.76 4.875 2.77 4.875 1.75 4.875 C1.42 7.845 1.09 10.815 0.75 13.875 C-0.3225 13.813125 -1.395 13.75125 -2.5 13.6875 C-6.35866187 13.88043309 -7.53817788 14.27165076 -10.25 16.875 C-10.45991514 6.16932782 -10.45991514 6.16932782 -6.5625 2 C-3.25 -0.125 -3.25 -0.125 0 0 Z " fill="#F8A110" transform="translate(253.25,68.125)"/>
<path d="M0 0 C2.20192224 3.30288336 2.23959968 4.27462727 2.1953125 8.10546875 C2.18564453 9.57983398 2.18564453 9.57983398 2.17578125 11.08398438 C2.15902344 12.10814453 2.14226563 13.13230469 2.125 14.1875 C2.11597656 15.22326172 2.10695313 16.25902344 2.09765625 17.32617188 C2.0740786 19.88434685 2.0411703 22.44205748 2 25 C3.32 25.33 4.64 25.66 6 26 C4.625 27.5 4.625 27.5 3 29 C2.34 29 1.68 29 1 29 C0.67 29.99 0.34 30.98 0 32 C1.11375 31.319375 1.11375 31.319375 2.25 30.625 C4.46930578 29.31359204 6.67967822 28.11719197 9 27 C9 26.34 9 25.68 9 25 C9.99 24.67 10.98 24.34 12 24 C12.48275862 30.39655172 12.48275862 30.39655172 10.5 32.875 C6.94362499 34.47536876 3.90093156 34.748327 0 35 C-0.66 34.67 -1.32 34.34 -2 34 C-1.90150757 33.13689209 -1.90150757 33.13689209 -1.80102539 32.25634766 C-1.05156516 25.30130169 -0.6964989 18.36372454 -0.4375 11.375 C-0.39431641 10.27542969 -0.35113281 9.17585938 -0.30664062 8.04296875 C-0.20173594 5.36207118 -0.09957274 2.68109999 0 0 Z " fill="#DB6520" transform="translate(25,61)"/>
<path d="M0 0 C2.05078125 0.03255208 4.1015625 0.06510417 6.15234375 0.09765625 C5.49234375 0.75765625 4.83234375 1.41765625 4.15234375 2.09765625 C6.62734375 2.59265625 6.62734375 2.59265625 9.15234375 3.09765625 C9.15234375 3.75765625 9.15234375 4.41765625 9.15234375 5.09765625 C5.85234375 5.42765625 2.55234375 5.75765625 -0.84765625 6.09765625 C-0.82703125 7.39703125 -0.80640625 8.69640625 -0.78515625 10.03515625 C-0.76366171 11.38931258 -0.77617426 12.74521708 -0.84765625 14.09765625 C-1.84765625 15.09765625 -1.84765625 15.09765625 -4.91015625 15.16015625 C-5.87953125 15.13953125 -6.84890625 15.11890625 -7.84765625 15.09765625 C-7.84765625 14.43765625 -7.84765625 13.77765625 -7.84765625 13.09765625 C-9.16765625 13.09765625 -10.48765625 13.09765625 -11.84765625 13.09765625 C-11.51765625 10.78765625 -11.18765625 8.47765625 -10.84765625 6.09765625 C-9.19765625 5.43765625 -7.54765625 4.77765625 -5.84765625 4.09765625 C-5.51765625 4.75765625 -5.18765625 5.41765625 -4.84765625 6.09765625 C-3.85765625 5.76765625 -2.86765625 5.43765625 -1.84765625 5.09765625 C-2.12609375 4.13859375 -2.12609375 4.13859375 -2.41015625 3.16015625 C-2.55453125 2.47953125 -2.69890625 1.79890625 -2.84765625 1.09765625 C-1.84765625 0.09765625 -1.84765625 0.09765625 0 0 Z " fill="#F17D0B" transform="translate(180.84765625,44.90234375)"/>
<path d="M0 0 C2.98214211 2.98214211 2.33692215 6.29484351 2.37890625 10.296875 C2.39590073 11.12326477 2.4128952 11.94965454 2.43040466 12.80108643 C2.48362754 15.45064588 2.52382893 18.10019135 2.5625 20.75 C2.60656851 23.38544119 2.65347607 26.0207667 2.70530701 28.65606689 C2.73699737 30.29656311 2.76396761 31.93715934 2.78553772 33.57781982 C2.86139661 37.81719639 3.17334517 41.82383141 4 46 C-1.67969253 47.27503302 -4.90281821 46.84265908 -10 44 C-12 42 -12 42 -13 40 C-12.67 39.01 -12.34 38.02 -12 37 C-11.6596875 37.9590625 -11.6596875 37.9590625 -11.3125 38.9375 C-10.14749104 41.27193661 -10.14749104 41.27193661 -7.375 41.75 C-6.59125 41.8325 -5.8075 41.915 -5 42 C-5 42.99 -5 43.98 -5 45 C-1.535 44.505 -1.535 44.505 2 44 C1.34 43.01 0.68 42.02 0 41 C-0.24050903 39.0827179 -0.24050903 39.0827179 -0.22705078 36.89575195 C-0.22682419 35.6648156 -0.22682419 35.6648156 -0.22659302 34.40901184 C-0.21627045 33.52767075 -0.20594788 32.64632965 -0.1953125 31.73828125 C-0.1924826 30.83248825 -0.18965271 29.92669525 -0.18673706 28.99345398 C-0.17553964 26.09966842 -0.15043589 23.20619206 -0.125 20.3125 C-0.11496963 18.35091593 -0.10584388 16.389327 -0.09765625 14.42773438 C-0.07560173 9.6183704 -0.04107489 4.80923763 0 0 Z " fill="#F6C646" transform="translate(405,50)"/>
<path d="M0 0 C0.93423645 3.01031744 1.04449911 3.86650268 0 7 C3.58327753 8.00217064 3.58327753 8.00217064 7 7 C7.99 7.66 8.98 8.32 10 9 C4.15897209 14.00659535 -0.52089745 15.2394133 -8 16 C-8.33 14.35 -8.66 12.7 -9 11 C-8.071875 10.29875 -7.14375 9.5975 -6.1875 8.875 C-3.09904705 6.32684378 -1.55573813 3.71648553 0 0 Z " fill="#F19A22" transform="translate(144,113)"/>
<path d="M0 0 C0.99 0.495 0.99 0.495 2 1 C1.98839844 2.25296875 1.97679687 3.5059375 1.96484375 4.796875 C1.95546284 6.44791517 1.94636296 8.09895696 1.9375 9.75 C1.92912109 10.575 1.92074219 11.4 1.91210938 12.25 C1.90888672 13.04921875 1.90566406 13.8484375 1.90234375 14.671875 C1.89710693 15.4050293 1.89187012 16.13818359 1.88647461 16.89355469 C2.0024891 19.0461849 2.40926729 20.9314135 3 23 C5.64 23.33 8.28 23.66 11 24 C11.33 16.41 11.66 8.82 12 1 C12.33 1 12.66 1 13 1 C13.04898437 1.97839844 13.09796875 2.95679687 13.1484375 3.96484375 C13.55995114 11.18052262 14.30079865 17.96045156 16 25 C14.19728218 26.80271782 11.55591251 26.21502284 9.125 26.25 C7.52011719 26.28867188 7.52011719 26.28867188 5.8828125 26.328125 C3 26 3 26 1.33813477 24.81225586 C-0.48584424 22.3420139 -0.34351247 20.72525215 -0.29296875 17.67578125 C-0.2784668 16.13374023 -0.2784668 16.13374023 -0.26367188 14.56054688 C-0.23853516 13.48869141 -0.21339844 12.41683594 -0.1875 11.3125 C-0.16719727 9.68731445 -0.16719727 9.68731445 -0.14648438 8.02929688 C-0.11110643 5.35236595 -0.06174189 2.67643162 0 0 Z " fill="#EBAD3E" transform="translate(269,69)"/>
<path d="M0 0 C0.99 0.33 1.98 0.66 3 1 C2.67 3.31 2.34 5.62 2 8 C4.36408207 8.75988352 5.69013267 9.0820237 8.125 8.4375 C8.74375 8.293125 9.3625 8.14875 10 8 C12 10 12 10 12.4375 13.375 C12 17 12 17 9.625 19.375 C6.04721242 21.58982088 4.18852255 22.15706016 0 22.1875 C-1.3303125 22.20876953 -1.3303125 22.20876953 -2.6875 22.23046875 C-5 22 -5 22 -7 20 C-6.07767578 19.94392578 -6.07767578 19.94392578 -5.13671875 19.88671875 C-4.32847656 19.82097656 -3.52023438 19.75523438 -2.6875 19.6875 C-1.88699219 19.62949219 -1.08648437 19.57148437 -0.26171875 19.51171875 C2.38742483 18.9123443 3.20473841 17.96373189 5 16 C5.66 16 6.32 16 7 16 C6.67 14.35 6.34 12.7 6 11 C5.195625 10.855625 4.39125 10.71125 3.5625 10.5625 C1 10 1 10 0 9 C-0.07179964 7.48071962 -0.08392007 5.95832518 -0.0625 4.4375 C-0.05347656 3.61121094 -0.04445312 2.78492187 -0.03515625 1.93359375 C-0.02355469 1.29550781 -0.01195312 0.65742187 0 0 Z " fill="#F3AE30" transform="translate(255,73)"/>
<path d="M0 0 C2.475 0.495 2.475 0.495 5 1 C5 3.97 5 6.94 5 10 C4.34 10 3.68 10 3 10 C3 10.66 3 11.32 3 12 C1.88625 12.268125 0.7725 12.53625 -0.375 12.8125 C-4.21840951 13.65809019 -4.21840951 13.65809019 -6 17 C-5.01 16.67 -4.02 16.34 -3 16 C-3 16.66 -3 17.32 -3 18 C-1.35 18 0.3 18 2 18 C-0.93720508 19.52299523 -3.9168649 20.80100302 -7 22 C-7 21.01 -7 20.02 -7 19 C-10.98683713 18.19058401 -10.98683713 18.19058401 -15 18 C-17.52590848 19.77154652 -17.52590848 19.77154652 -19 22 C-19.66 21.67 -20.32 21.34 -21 21 C-13.02512968 13.61211252 -6.75892466 10.62723949 4 9 C3.73606499 5.56769552 3.73606499 5.56769552 3 2 C2.01 1.34 1.02 0.68 0 0 Z " fill="#F0A52C" transform="translate(265,51)"/>
<path d="M0 0 C0.33 0 0.66 0 1 0 C1.33 5.94 1.66 11.88 2 18 C2.66 18 3.32 18 4 18 C4.33 18.99 4.66 19.98 5 21 C9.00254456 21.09181134 9.00254456 21.09181134 13 21 C15.05922402 18.94077598 14.41427579 14.78291876 14.5625 11.9375 C14.60568359 11.17888672 14.64886719 10.42027344 14.69335938 9.63867188 C14.79973633 7.75934562 14.90039934 5.87969756 15 4 C15.33 4 15.66 4 16 4 C16.24867947 6.60364409 16.47457902 9.20589894 16.6875 11.8125 C16.76033203 12.55048828 16.83316406 13.28847656 16.90820312 14.04882812 C17.32784926 19.50422794 17.32784926 19.50422794 15.71875 21.9375 C10.46823181 25.18327488 4.94417418 25.20856752 -1 25 C-1.97963374 21.82662906 -2.00148074 19.30840242 -1.66015625 16.015625 C-1.56669922 15.08105469 -1.47324219 14.14648438 -1.37695312 13.18359375 C-1.27318359 12.21550781 -1.16941406 11.24742188 -1.0625 10.25 C-0.96259766 9.26644531 -0.86269531 8.28289062 -0.75976562 7.26953125 C-0.51267098 4.84565041 -0.25920287 2.42261093 0 0 Z " fill="#EBA42E" transform="translate(218,71)"/>
<path d="M0 0 C1.54944545 3.0988909 1.08547151 6.35119033 1.01953125 9.74609375 C0.9983448 10.89646873 0.9983448 10.89646873 0.97673035 12.07008362 C0.94359983 13.69335528 0.90724235 15.31656379 0.86791992 16.93969727 C0.81279892 19.42402758 0.78418766 21.90781782 0.75585938 24.39257812 C0.72039808 25.96878794 0.68334152 27.54496284 0.64453125 29.12109375 C0.64016556 29.86491806 0.63579987 30.60874237 0.63130188 31.37510681 C0.46095064 36.52762423 0.46095064 36.52762423 -1.91088867 38.95825195 C-5.31948924 40.65797132 -8.20122086 40.75491748 -12 41 C-12.66 40.67 -13.32 40.34 -14 40 C-13.67 30.76 -13.34 21.52 -13 12 C-12.67 12 -12.34 12 -12 12 C-11.67 20.91 -11.34 29.82 -11 39 C-10.01 39 -9.02 39 -8 39 C-7.67 38.34 -7.34 37.68 -7 37 C-4.4375 36.375 -4.4375 36.375 -2 36 C-1.97494385 34.94498291 -1.9498877 33.88996582 -1.92407227 32.80297852 C-1.83015891 28.90229372 -1.72989966 25.00179375 -1.62768555 21.10131836 C-1.58427561 19.41060701 -1.54260511 17.71985009 -1.50268555 16.02905273 C-1.44512906 13.60386394 -1.38139351 11.17890585 -1.31640625 8.75390625 C-1.29969376 7.99348526 -1.28298126 7.23306427 -1.26576233 6.44960022 C-1.11387171 1.11387171 -1.11387171 1.11387171 0 0 Z " fill="#EEB243" transform="translate(301,55)"/>
<path d="M0 0 C-0.53239608 4.52536666 -2.27123273 7.38839627 -5 11 C-8.20380017 13.13586678 -9.01939967 13.23132175 -12.6875 13.125 C-13.49574219 13.10695313 -14.30398437 13.08890625 -15.13671875 13.0703125 C-16.05904297 13.03550781 -16.05904297 13.03550781 -17 13 C-17 12.34 -17 11.68 -17 11 C-13.37 10.67 -9.74 10.34 -6 10 C-6 9.01 -6 8.02 -6 7 C-5.02149805 5.97895449 -4.02019573 4.9793879 -3 4 C-2.67 3.01 -2.34 2.02 -2 1 C-4.97 1.66 -7.94 2.32 -11 3 C-11 3.33 -11 3.66 -11 4 C-15.62 4 -20.24 4 -25 4 C-25 3.67 -25 3.34 -25 3 C-29.29 2.67 -33.58 2.34 -38 2 C-38 1.67 -38 1.34 -38 1 C-36.94256592 1.01571045 -36.94256592 1.01571045 -35.86376953 1.03173828 C-32.61755044 1.07374505 -29.37138884 1.0994666 -26.125 1.125 C-25.01640625 1.14175781 -23.9078125 1.15851562 -22.765625 1.17578125 C-16.60444307 1.2120235 -11.00326138 0.84985841 -5.01904297 -0.66455078 C-3 -1 -3 -1 0 0 Z " fill="#E2923A" transform="translate(251,14)"/>
<path d="M0 0 C3.875 1.75 3.875 1.75 5 4 C4.72057545 5.67654729 4.39171753 7.34608154 4 9 C5.32 9 6.64 9 8 9 C8 7.68 8 6.36 8 5 C11.6441774 2.5705484 13.71241272 2.83820425 18 3 C18.33 2.34 18.66 1.68 19 1 C19 2.65 19 4.3 19 6 C17.02 6.66 15.04 7.32 13 8 C13.33 8.66 13.66 9.32 14 10 C10.04 10 6.08 10 2 10 C1.01 7.03 0.02 4.06 -1 1 C-0.67 0.67 -0.34 0.34 0 0 Z " fill="#F5900B" transform="translate(168,83)"/>
<path d="M0 0 C-3.76300374 1.25433458 -7.27210909 1.10695422 -11.1875 1.0625 C-11.93708984 1.05798828 -12.68667969 1.05347656 -13.45898438 1.04882812 C-15.30602383 1.03706354 -17.15302213 1.01912865 -19 1 C-19.33 1.99 -19.66 2.98 -20 4 C-19.34 4.33 -18.68 4.66 -18 5 C-19.98 5.99 -19.98 5.99 -22 7 C-22.33 6.01 -22.66 5.02 -23 4 C-26.87952544 6.62948691 -26.87952544 6.62948691 -28.8125 10.75 C-28.874375 11.4925 -28.93625 12.235 -29 13 C-29.33 13 -29.66 13 -30 13 C-30.35213747 9.30255651 -30.0961114 7.20423674 -28.5 3.8125 C-21.6833853 -3.85619154 -8.97564442 -3.9891753 0 0 Z " fill="#E4842C" transform="translate(198,45)"/>
<path d="M0 0 C0 0.66 0 1.32 0 2 C-1.26839526 2.50615298 -2.53983102 3.00469099 -3.8125 3.5 C-4.87404297 3.91765625 -4.87404297 3.91765625 -5.95703125 4.34375 C-8 5 -8 5 -11 5 C-11 5.66 -11 6.32 -11 7 C-11.639375 7.12375 -12.27875 7.2475 -12.9375 7.375 C-13.618125 7.58125 -14.29875 7.7875 -15 8 C-15.33 8.66 -15.66 9.32 -16 10 C-16.66 10 -17.32 10 -18 10 C-18.33 11.32 -18.66 12.64 -19 14 C-18.34 14.33 -17.68 14.66 -17 15 C-17.66 15.66 -18.32 16.32 -19 17 C-19.99 17 -20.98 17 -22 17 C-22.33 19.31 -22.66 21.62 -23 24 C-23.33 24 -23.66 24 -24 24 C-24.49714688 18.03423743 -23.38315937 13.97523437 -20 9 C-14.6058821 3.6058821 -7.76745964 0 0 0 Z " fill="#DD7224" transform="translate(102,61)"/>
<path d="M0 0 C13.79726116 -0.68479054 13.79726116 -0.68479054 19 3 C22.68528534 7.57715804 23.56200447 11.06966174 23.390625 16.8046875 C23.38496521 17.5286673 23.37930542 18.25264709 23.37347412 18.99856567 C23.35123667 21.29140788 23.30106987 23.58263716 23.25 25.875 C23.22991841 27.43747729 23.21167055 28.99997929 23.1953125 30.5625 C23.15141416 34.3756133 23.08247971 38.18753402 23 42 C22.67 42 22.34 42 22 42 C21.9906543 41.09233887 21.98130859 40.18467773 21.97167969 39.24951172 C21.92749516 35.86073186 21.86580889 32.47318774 21.79248047 29.08496094 C21.7643689 27.62251295 21.74310569 26.1599158 21.72900391 24.69726562 C21.70743581 22.58646831 21.66072344 20.47744571 21.609375 18.3671875 C21.58842773 17.09987793 21.56748047 15.83256836 21.54589844 14.52685547 C20.9095085 10.41536664 19.58950662 8.22047217 17 5 C13.34855328 2.92903022 9.83685358 2.64858375 5.6875 2.375 C4.08455078 2.26285156 4.08455078 2.26285156 2.44921875 2.1484375 C1.64097656 2.09945312 0.83273438 2.05046875 0 2 C0 1.34 0 0.68 0 0 Z " fill="#D87222" transform="translate(95,43)"/>
<path d="M0 0 C5.60929268 0.38029103 8.97300524 0.73612319 13 5 C15.25594729 9.29892053 15.3015793 13.4379061 15.25 18.1875 C15.25773437 18.91130859 15.26546875 19.63511719 15.2734375 20.38085938 C15.25347222 25.74652778 15.25347222 25.74652778 13 28 C10.90625 28.08203125 10.90625 28.08203125 8.5 27.8125 C7.7059375 27.73644531 6.911875 27.66039063 6.09375 27.58203125 C4 27 4 27 2 24 C4.97 24.33 7.94 24.66 11 25 C11.144375 23.865625 11.28875 22.73125 11.4375 21.5625 C12 18 12 18 13 17 C12.91015699 15.14227838 12.75388139 13.28752015 12.5625 11.4375 C12.46066406 10.42558594 12.35882813 9.41367187 12.25390625 8.37109375 C12.17011719 7.58863281 12.08632813 6.80617188 12 6 C11.34 6 10.68 6 10 6 C9.608125 5.54625 9.21625 5.0925 8.8125 4.625 C6.19861396 2.28151596 3.35916371 1.82394582 0 1 C0 0.67 0 0.34 0 0 Z " fill="#F1B541" transform="translate(307,43)"/>
<path d="M0 0 C3.5625 1.1875 3.5625 1.1875 6.5625 3.1875 C7.5525 2.5275 8.5425 1.8675 9.5625 1.1875 C10.5525 1.1875 11.5425 1.1875 12.5625 1.1875 C12.5625 1.8475 12.5625 2.5075 12.5625 3.1875 C11.2425 3.5175 9.9225 3.8475 8.5625 4.1875 C8.2325 5.8375 7.9025 7.4875 7.5625 9.1875 C6.9025 8.8575 6.2425 8.5275 5.5625 8.1875 C5.8925 7.5275 6.2225 6.8675 6.5625 6.1875 C5.2425 5.8575 3.9225 5.5275 2.5625 5.1875 C2.5625 4.1975 2.5625 3.2075 2.5625 2.1875 C0.2525 2.1875 -2.0575 2.1875 -4.4375 2.1875 C-4.4375 8.7875 -4.4375 15.3875 -4.4375 22.1875 C-4.7675 22.1875 -5.0975 22.1875 -5.4375 22.1875 C-5.4375 14.9275 -5.4375 7.6675 -5.4375 0.1875 C-3.4375 -0.8125 -3.4375 -0.8125 0 0 Z " fill="#F3A73A" transform="translate(293.4375,42.8125)"/>
<path d="M0 0 C0.91058531 3.07322544 1.08886184 5.80097361 1 9 C2.32 9 3.64 9 5 9 C5.103125 9.598125 5.20625 10.19625 5.3125 10.8125 C6.09385053 13.29861534 7.14895416 14.22943442 9 16 C9 16.66 9 17.32 9 18 C7.02 18.33 5.04 18.66 3 19 C-0.70995164 13.55100853 -1.77759001 9.57764664 -1 3 C-0.67 2.01 -0.34 1.02 0 0 Z " fill="#FAA513" transform="translate(243,74)"/>
<path d="M0 0 C0.99 0.33 1.98 0.66 3 1 C2.34 1.556875 1.68 2.11375 1 2.6875 C-1.25492211 4.84062308 -1.25492211 4.84062308 -1.25 7.75 C-1.1675 8.4925 -1.085 9.235 -1 10 C0.66666667 10.33333333 2.33333333 10.66666667 4 11 C5.66666667 11.33333333 7.33333333 11.66666667 9 12 C9.36923077 17.41538462 9.36923077 17.41538462 7.5 20.375 C6.7575 21.179375 6.7575 21.179375 6 22 C5.34 21.67 4.68 21.34 4 21 C4.33 20.34 4.66 19.68 5 19 C5.66 19 6.32 19 7 19 C7 18.34 7 17.68 7 17 C6.278125 16.7525 5.55625 16.505 4.8125 16.25 C1.55509926 14.80226634 -0.57122823 13.63695221 -3 11 C-3.63779816 8.04943843 -3.39233364 6.08962745 -3 3 C-1.5 1 -1.5 1 0 0 Z " fill="#E38025" transform="translate(94,71)"/>
<path d="M0 0 C0.99 0.33 1.98 0.66 3 1 C3.74926071 4.66305234 4.2380014 7.42355152 3 11 C2.01 11 1.02 11 0 11 C0 10.34 0 9.68 0 9 C-1.32 9.99 -2.64 10.98 -4 12 C-4 11.01 -4 10.02 -4 9 C-4.66 9 -5.32 9 -6 9 C-5.690625 8.401875 -5.38125 7.80375 -5.0625 7.1875 C-3.89790296 4.91043228 -3.89790296 4.91043228 -3 2 C-2.01 2 -1.02 2 0 2 C0 1.34 0 0.68 0 0 Z " fill="#F79511" transform="translate(254,45)"/>
<path d="M0 0 C0.66 0 1.32 0 2 0 C2 0.66 2 1.32 2 2 C4.31 2 6.62 2 9 2 C9 2.66 9 3.32 9 4 C12.3 4 15.6 4 19 4 C19 3.67 19 3.34 19 3 C20.98 3 22.96 3 25 3 C21.6558489 6.23964638 18.8881843 7.72224018 14.19140625 8.10546875 C9.52683411 7.88097063 4.83742736 6.54816496 1.23828125 3.515625 C0 2 0 2 0 0 Z " fill="#F7C637" transform="translate(327,88)"/>
<path d="M0 0 C0.33 0 0.66 0 1 0 C1.05399736 1.45792884 1.09279177 2.91642712 1.125 4.375 C1.14820313 5.18710938 1.17140625 5.99921875 1.1953125 6.8359375 C1 9 1 9 -1 11 C-3.68839385 11.26991906 -6.29141936 11.08737357 -9 11 C-9.33 10.34 -9.66 9.68 -10 9 C-9.34 9 -8.68 9 -8 9 C-8 8.01 -8 7.02 -8 6 C-7.236875 5.7525 -6.47375 5.505 -5.6875 5.25 C-2.75099641 3.88418437 -1.76377946 2.64566919 0 0 Z " fill="#F8A111" transform="translate(232,82)"/>
<path d="M0 0 C1.2065625 0.0309375 1.2065625 0.0309375 2.4375 0.0625 C2.1075 1.7125 1.7775 3.3625 1.4375 5.0625 C4.0775 5.0625 6.7175 5.0625 9.4375 5.0625 C6.94744323 7.55255677 6.06279268 7.35953766 2.625 7.375 C-1.55240335 7.29048606 -4.30878754 6.89637859 -7.5625 4.0625 C-7.8925 3.0725 -8.2225 2.0825 -8.5625 1.0625 C-7.3559375 1.0934375 -7.3559375 1.0934375 -6.125 1.125 C-3.0866539 1.050894 -3.0383461 0.074106 0 0 Z " fill="#E67E25" transform="translate(88.5625,87.9375)"/>
<path d="M0 0 C6.10068259 0.33276451 6.10068259 0.33276451 8.9375 2.4375 C10 4 10 4 10 6 C9.34 6 8.68 6 8 6 C7.67 5.34 7.34 4.68 7 4 C4.69 3.34 2.38 2.68 0 2 C0 14.21 0 26.42 0 39 C-0.33 39 -0.66 39 -1 39 C-1.19210448 33.76762064 -1.37085125 28.53502233 -1.53710938 23.30175781 C-1.59558966 21.5207082 -1.65775006 19.73977553 -1.72363281 17.95898438 C-1.81757713 15.40256032 -1.89837558 12.84601088 -1.9765625 10.2890625 C-2.00875885 9.49005524 -2.0409552 8.69104797 -2.0741272 7.86782837 C-2.12738475 5.91245465 -2.07296352 3.95473759 -2 2 C-1.34 1.34 -0.68 0.68 0 0 Z " fill="#F4BD42" transform="translate(371,42)"/>
<path d="M0 0 C-0.33 2.97 -0.66 5.94 -1 9 C-3 5 -3 5 -3 3 C-4.32 3.33 -5.64 3.66 -7 4 C-7 3.34 -7 2.68 -7 2 C-10.69754402 3.23251467 -11.62232923 5.00873677 -14 8 C-14.66 8 -15.32 8 -16 8 C-15.8125 5.6875 -15.8125 5.6875 -15 3 C-10.18338978 -0.7462524 -5.8381237 -1.50123181 0 0 Z " fill="#FAC429" transform="translate(365,43)"/>
<path d="M0 0 C1.9375 0.3125 1.9375 0.3125 4 1 C5.13470224 4.40410672 4.73665033 5.56878467 4 9 C3.85647751 11.12928664 3.75435495 13.26158653 3.68359375 15.39453125 C3.64169922 16.59658203 3.59980469 17.79863281 3.55664062 19.03710938 C3.49766602 20.90592773 3.49766602 20.90592773 3.4375 22.8125 C3.39431641 24.07771484 3.35113281 25.34292969 3.30664062 26.64648438 C3.2007553 29.76421889 3.09867595 32.88203035 3 36 C2.67 36 2.34 36 2 36 C-0.14254401 8.68256393 -0.14254401 8.68256393 3 2 C2.01 2 1.02 2 0 2 C0 1.34 0 0.68 0 0 Z " fill="#D78532" transform="translate(158,41)"/>
<path d="M0 0 C0.99 0 1.98 0 3 0 C5.22656164 4.74354436 6.46148032 8.72250715 7 14 C5.125 14.625 5.125 14.625 3 15 C2.34 14.34 1.68 13.68 1 13 C1.66 11.02 2.32 9.04 3 7 C2.01 6.67 1.02 6.34 0 6 C0 4.02 0 2.04 0 0 Z " fill="#E54103" transform="translate(40,17)"/>
<path d="M0 0 C1.32 0 2.64 0 4 0 C4.8125 3.1875 4.8125 3.1875 5 7 C2.84567661 9.678348 1.07491161 11.46254419 -2 13 C-3.66345582 13.12082534 -5.33220591 13.1753794 -7 13.1875 C-8.3303125 13.20876953 -8.3303125 13.20876953 -9.6875 13.23046875 C-12 13 -12 13 -14 11 C-13.28972656 10.95101562 -12.57945312 10.90203125 -11.84765625 10.8515625 C-10.46900391 10.73941406 -10.46900391 10.73941406 -9.0625 10.625 C-8.14597656 10.55539063 -7.22945312 10.48578125 -6.28515625 10.4140625 C-5.15400391 10.20910156 -5.15400391 10.20910156 -4 10 C-3.67 9.34 -3.34 8.68 -3 8 C-0.4375 7.375 -0.4375 7.375 2 7 C2.33 5.02 2.66 3.04 3 1 C2.01 0.67 1.02 0.34 0 0 Z " fill="#E79937" transform="translate(184,82)"/>
<path d="M0 0 C0.33 0 0.66 0 1 0 C1.06058594 0.96421875 1.12117187 1.9284375 1.18359375 2.921875 C1.26738281 4.18515625 1.35117188 5.4484375 1.4375 6.75 C1.55931641 8.62945312 1.55931641 8.62945312 1.68359375 10.546875 C1.92515522 13.18317553 2.24283934 15.48037294 3 18 C-0.33333333 16.33333333 -3.66666667 14.66666667 -7 13 C-6.34 12.67 -5.68 12.34 -5 12 C-4.67 11.34 -4.34 10.68 -4 10 C-4 10.66 -4 11.32 -4 12 C-3.34 12 -2.68 12 -2 12 C-1.93941406 11.21753906 -1.87882813 10.43507813 -1.81640625 9.62890625 C-1.73261719 8.61699219 -1.64882812 7.60507813 -1.5625 6.5625 C-1.48128906 5.55316406 -1.40007812 4.54382813 -1.31640625 3.50390625 C-1 1 -1 1 0 0 Z " fill="#EF7C13" transform="translate(134,63)"/>
<path d="M0 0 C3.26566506 4.89849759 3.09311493 8.31998909 3 14 C1.35 14.33 -0.3 14.66 -2 15 C-1.85879286 13.06215735 -1.71187127 11.12473045 -1.5625 9.1875 C-1.48128906 8.10855469 -1.40007812 7.02960938 -1.31640625 5.91796875 C-1 3 -1 3 0 0 Z " fill="#E47D22" transform="translate(123,61)"/>
<path d="M0 0 C9.6402439 -0.56707317 9.6402439 -0.56707317 14 3 C16.29013653 6.4352048 16.17842973 7.985331 16 12 C15.01 12 14.02 12 13 12 C13.33 9.69 13.66 7.38 14 5 C13.34 5 12.68 5 12 5 C12 4.34 12 3.68 12 3 C8.37 2.67 4.74 2.34 1 2 C1 2.66 1 3.32 1 4 C0.34 4 -0.32 4 -1 4 C-0.67 2.68 -0.34 1.36 0 0 Z " fill="#F4B337" transform="translate(326,43)"/>
<path d="M0 0 C-0.86625 0.185625 -0.86625 0.185625 -1.75 0.375 C-5.08172171 1.24978826 -5.08172171 1.24978826 -8 3 C-8.40729228 5.32156597 -8.74438677 7.6568787 -9 10 C-11.7798816 11.3899408 -13.9186326 11.18488204 -17 11 C-19.375 10 -19.375 10 -21 9 C-21 8.34 -21 7.68 -21 7 C-19.68 7 -18.36 7 -17 7 C-17 7.66 -17 8.32 -17 9 C-15.02 8.67 -13.04 8.34 -11 8 C-10.67 5.36 -10.34 2.72 -10 0 C-6.30458414 -0.95024979 -3.69541586 -0.95024979 0 0 Z " fill="#E18830" transform="translate(190,51)"/>
<path d="M0 0 C0 1.65 0 3.3 0 5 C-0.99 5.495 -0.99 5.495 -2 6 C-2.33 4.68 -2.66 3.36 -3 2 C-6.01031744 1.06576355 -6.86650268 0.95550089 -10 2 C-10.80212628 3.87387216 -10.80212628 3.87387216 -11.1875 6.0625 C-11.34605469 6.79597656 -11.50460938 7.52945313 -11.66796875 8.28515625 C-11.77753906 8.85105469 -11.88710937 9.41695312 -12 10 C-12.66 10 -13.32 10 -14 10 C-14.3125 6.75 -14.3125 6.75 -14 3 C-9.23787516 -1.89083092 -6.23494658 -2.35542427 0 0 Z " fill="#E36E26" transform="translate(107,51)"/>
<path d="M0 0 C0.66 0 1.32 0 2 0 C2 1.32 2 2.64 2 4 C2.66 4 3.32 4 4 4 C4.33 3.34 4.66 2.68 5 2 C4.65557106 4.49710982 4.15296001 5.82154665 2.5 7.75 C-1.19026352 9.59513176 -4.94107862 9.60335318 -9 9 C-9.66 8.34 -10.32 7.68 -11 7 C-7.04 7 -3.08 7 1 7 C1 6.01 1 5.02 1 4 C0.01 3.67 -0.98 3.34 -2 3 C-1.34 2.01 -0.68 1.02 0 0 Z " fill="#E68B2E" transform="translate(140,86)"/>
<path d="M0 0 C2.64 0 5.28 0 8 0 C8.33 0.66 8.66 1.32 9 2 C8.34 2.66 7.68 3.32 7 4 C7 4.99 7 5.98 7 7 C4.36 6.67 1.72 6.34 -1 6 C-0.649375 5.38125 -0.29875 4.7625 0.0625 4.125 C0.371875 3.42375 0.68125 2.7225 1 2 C0.67 1.34 0.34 0.68 0 0 Z " fill="#F89910" transform="translate(263,45)"/>
<path d="M0 0 C0.4125 0.495 0.825 0.99 1.25 1.5 C3.12202338 3.43386092 3.12202338 3.43386092 7 3 C7.66 3 8.32 3 9 3 C9 3.99 9 4.98 9 6 C12.60992379 5.34414811 12.60992379 5.34414811 16 4 C16 4.99 16 5.98 16 7 C11.38 7 6.76 7 2 7 C1.01 5.02 0.02 3.04 -1 1 C-0.67 0.67 -0.34 0.34 0 0 Z " fill="#F18512" transform="translate(125,86)"/>
<path d="M0 0 C0.33 0 0.66 0 1 0 C1.33 7.92 1.66 15.84 2 24 C0.02 24 -1.96 24 -4 24 C-3.01 23.67 -2.02 23.34 -1 23 C-0.67 15.41 -0.34 7.82 0 0 Z " fill="#F5B02E" transform="translate(281,70)"/>
<path d="M0 0 C0.66 0 1.32 0 2 0 C2.33 3.63 2.66 7.26 3 11 C4.98 11 6.96 11 9 11 C6 13 6 13 0 13 C0 8.71 0 4.42 0 0 Z " fill="#F5C139" transform="translate(369,83)"/>
<path d="M0 0 C7.08212915 -0.35150273 12.55690646 -0.10223022 19 3 C19.33 3.66 19.66 4.32 20 5 C14.25 4.125 14.25 4.125 12 3 C9.9625237 2.77141886 7.91959697 2.58975722 5.875 2.4375 C4.23144531 2.31181641 4.23144531 2.31181641 2.5546875 2.18359375 C1.71164063 2.12300781 0.86859375 2.06242187 0 2 C0 1.34 0 0.68 0 0 Z " fill="#DC7330" transform="translate(95,43)"/>
<path d="M0 0 C-0.66 1.65 -1.32 3.3 -2 5 C-2.66 5 -3.32 5 -4 5 C-4 5.99 -4 6.98 -4 8 C-6.31 8.33 -8.62 8.66 -11 9 C-10.34 8.67 -9.68 8.34 -9 8 C-7.8509288 6.0745356 -7.8509288 6.0745356 -8 4 C-8 3.34 -8 2.68 -8 2 C-7.01 1.67 -6.02 1.34 -5 1 C-3 0 -3 0 0 0 Z " fill="#F1810D" transform="translate(249,16)"/>
<path d="M0 0 C3 1 3 1 5 3 C5.1953125 5.1640625 5.1953125 5.1640625 5.125 7.625 C5.10695313 8.44226562 5.08890625 9.25953125 5.0703125 10.1015625 C5.03550781 11.04128906 5.03550781 11.04128906 5 12 C5.66 12 6.32 12 7 12 C6.67 13.32 6.34 14.64 6 16 C3.63224279 13.63224279 3.00103504 11.70288662 1.875 8.5625 C1.52179687 7.59441406 1.16859375 6.62632813 0.8046875 5.62890625 C0 3 0 3 0 0 Z " fill="#DE5918" transform="translate(42,55)"/>
<path d="M0 0 C0 1.65 0 3.3 0 5 C-0.99 5.495 -0.99 5.495 -2 6 C-2.66 5.67 -3.32 5.34 -4 5 C-4 5.66 -4 6.32 -4 7 C-1.03 7.495 -1.03 7.495 2 8 C2 8.33 2 8.66 2 9 C-0.64 9.33 -3.28 9.66 -6 10 C-6.33 8.35 -6.66 6.7 -7 5 C-1.125 0 -1.125 0 0 0 Z " fill="#EAA134" transform="translate(142,119)"/>
<path d="M0 0 C0.99 0 1.98 0 3 0 C3.33 1.98 3.66 3.96 4 6 C1.03 6 -1.94 6 -5 6 C-4.67 5.01 -4.34 4.02 -4 3 C-3.01 2.67 -2.02 2.34 -1 2 C-0.67 1.34 -0.34 0.68 0 0 Z " fill="#F69911" transform="translate(201,87)"/>
<path d="M0 0 C2.31 0.33 4.62 0.66 7 1 C6.67 2.32 6.34 3.64 6 5 C5.01 5 4.02 5 3 5 C2.67 5.66 2.34 6.32 2 7 C1.34 7 0.68 7 0 7 C-1.125 2.25 -1.125 2.25 0 0 Z " fill="#F5840C" transform="translate(172,67)"/>
<path d="M0 0 C1.82421875 0.0390625 1.82421875 0.0390625 4 1 C5.16358359 3.50664024 6.02098382 5.75447259 6.8125 8.375 C7.04130859 9.06078125 7.27011719 9.7465625 7.50585938 10.453125 C9.13830342 15.58508975 9.13830342 15.58508975 8 19 C8 18.34 8 17.68 8 17 C7.34 17 6.68 17 6 17 C5.81824219 16.19175781 5.63648438 15.38351563 5.44921875 14.55078125 C5.19785156 13.48214844 4.94648437 12.41351563 4.6875 11.3125 C4.44386719 10.25675781 4.20023438 9.20101563 3.94921875 8.11328125 C3.00739175 5.02424372 1.77627063 2.68182036 0 0 Z " fill="#D1531A" transform="translate(41,15)"/>
<path d="M0 0 C1.33333333 2.66666667 2.66666667 5.33333333 4 8 C1.525 9.485 1.525 9.485 -1 11 C-2.26264601 6.70700357 -1.62950412 4.12168689 0 0 Z " fill="#EE991D" transform="translate(147,102)"/>
<path d="M0 0 C0.99 0.33 1.98 0.66 3 1 C4.1328125 3.765625 4.1328125 3.765625 5.125 7.25 C5.45757812 8.38953125 5.79015625 9.5290625 6.1328125 10.703125 C6.85838614 13.46161215 7.48350554 16.19617292 8 19 C5.24020259 15.71414149 3.81690532 12.37771204 2.3125 8.375 C1.87550781 7.22773437 1.43851563 6.08046875 0.98828125 4.8984375 C0 2 0 2 0 0 Z " fill="#D66C2B" transform="translate(48,72)"/>
<path d="M0 0 C0.88300781 0.19464844 1.76601563 0.38929687 2.67578125 0.58984375 C3.33964844 0.74582031 4.00351562 0.90179688 4.6875 1.0625 C4.6875 1.3925 4.6875 1.7225 4.6875 2.0625 C3.49253906 2.04509766 3.49253906 2.04509766 2.2734375 2.02734375 C-5.56728989 1.94398443 -5.56728989 1.94398443 -13.3125 3.0625 C-9.59751269 -1.4345899 -5.37374985 -1.21804997 0 0 Z " fill="#F8C448" transform="translate(395.3125,42.9375)"/>
<path d="M0 0 C0.8723412 2.99480917 1.10829766 5.63575911 1.0625 8.75 C1.05347656 9.54921875 1.04445312 10.3484375 1.03515625 11.171875 C1.01775391 12.07679687 1.01775391 12.07679687 1 13 C1.99 13.33 2.98 13.66 4 14 C4.33 15.65 4.66 17.3 5 19 C2 18 2 18 0.3125 15.5 C-1.65277662 10.25926234 -1.77263991 5.31791973 0 0 Z " fill="#E9A534" transform="translate(243,74)"/>
<path d="M0 0 C1.0625 1.8125 1.0625 1.8125 2 4 C1 7 1 7 -1 8 C-4.48955396 8.30343947 -6.37505704 8.39470082 -9.375 6.5 C-9.91125 6.005 -10.4475 5.51 -11 5 C-8.03 5 -5.06 5 -2 5 C-1.34 3.35 -0.68 1.7 0 0 Z " fill="#EEA13C" transform="translate(258,54)"/>
<path d="M0 0 C0 0.66 0 1.32 0 2 C-0.7425 2.061875 -1.485 2.12375 -2.25 2.1875 C-5.81867077 3.24188 -6.82422624 5.07395942 -9 8 C-9.66 8 -10.32 8 -11 8 C-10.8125 5.6875 -10.8125 5.6875 -10 3 C-6.66753954 0.31551796 -4.23795734 -0.36325349 0 0 Z " fill="#F6BF33" transform="translate(360,43)"/>
<path d="M0 0 C-0.58007812 0.25394531 -1.16015625 0.50789063 -1.7578125 0.76953125 C-5.37858043 2.36482009 -8.93526289 3.96586589 -12.4375 5.8125 C-13.283125 6.204375 -14.12875 6.59625 -15 7 C-15.66 6.67 -16.32 6.34 -17 6 C-12.49535937 1.78598135 -6.17989623 -2.05996541 0 0 Z " fill="#E37B30" transform="translate(146,43)"/>
<path d="M0 0 C1.65 0 3.3 0 5 0 C4.67 1.65 4.34 3.3 4 5 C2.35 5 0.7 5 -1 5 C-0.67 3.35 -0.34 1.7 0 0 Z M-3 5 C-1 6 -1 6 -1 6 Z M-4 6 C-3.67 6.99 -3.34 7.98 -3 9 C-3.66 8.67 -4.32 8.34 -5 8 C-4.67 7.34 -4.34 6.68 -4 6 Z " fill="#EE5C09" transform="translate(87,49)"/>
<path d="M0 0 C0.33 0 0.66 0 1 0 C1.042721 1.66611905 1.04063832 3.33382885 1 5 C0.67 5.33 0.34 5.66 0 6 C-1.99609375 5.984375 -1.99609375 5.984375 -4.4375 5.75 C-5.24058594 5.68296875 -6.04367187 5.6159375 -6.87109375 5.546875 C-9 5 -9 5 -11 2 C-10.29875 2.144375 -9.5975 2.28875 -8.875 2.4375 C-5.92443859 3.01478375 -2.96729849 3.51695141 0 4 C0 2.68 0 1.36 0 0 Z " fill="#F4C343" transform="translate(363,90)"/>
<path d="M0 0 C0 0.66 0 1.32 0 2 C-0.78375 2.7425 -1.5675 3.485 -2.375 4.25 C-5.14152723 7.14826662 -6.02011258 9.169531 -7 13 C-7.33 13 -7.66 13 -8 13 C-7.80843773 4.84989607 -7.80843773 4.84989607 -4.5625 1.4375 C-2 0 -2 0 0 0 Z " fill="#E79D2B" transform="translate(254,45)"/>
<path d="M0 0 C0.33 0 0.66 0 1 0 C1.29296875 6.0546875 1.29296875 6.0546875 1 8 C-2 10 -2 10 -6 10 C-6 9.34 -6 8.68 -6 8 C-4.35 7.67 -2.7 7.34 -1 7 C-1.020625 6.030625 -1.04125 5.06125 -1.0625 4.0625 C-1 1 -1 1 0 0 Z " fill="#E88A2B" transform="translate(192,53)"/>
<path d="M0 0 C0 1.98 0 3.96 0 6 C-0.99 6.495 -0.99 6.495 -2 7 C-2.65555119 9.52733235 -2.65555119 9.52733235 -3 12 C-3.33 12 -3.66 12 -4 12 C-4 8.37 -4 4.74 -4 1 C-1 0 -1 0 0 0 Z " fill="#E77617" transform="translate(152,49)"/>
<path d="M0 0 C0.33 0.66 0.66 1.32 1 2 C1.99 2 2.98 2 4 2 C3.67 3.65 3.34 5.3 3 7 C0.69 6.34 -1.62 5.68 -4 5 C-3.34 4.01 -2.68 3.02 -2 2 C-1.34 2 -0.68 2 0 2 C0 1.34 0 0.68 0 0 Z " fill="#F0700D" transform="translate(157,41)"/>
<path d="M0 0 C1.84765625 0.33984375 1.84765625 0.33984375 4.0625 0.9375 C5.16271484 1.22947266 5.16271484 1.22947266 6.28515625 1.52734375 C7.13400391 1.76130859 7.13400391 1.76130859 8 2 C7.2265625 2.37125 7.2265625 2.37125 6.4375 2.75 C3.22815849 4.39581616 0.12414336 6.1976096 -3 8 C-3 6.68 -3 5.36 -3 4 C-1.68 4 -0.36 4 1 4 C1 3.34 1 2.68 1 2 C0.34 1.67 -0.32 1.34 -1 1 C-0.67 0.67 -0.34 0.34 0 0 Z " fill="#E68F27" transform="translate(181,67)"/>
<path d="M0 0 C0.33 1.32 0.66 2.64 1 4 C-2.6441774 6.4294516 -4.71241272 6.16179575 -9 6 C-8.01 5.67 -7.02 5.34 -6 5 C-5.67 4.34 -5.34 3.68 -5 3 C-2.4375 2.375 -2.4375 2.375 0 2 C0 1.34 0 0.68 0 0 Z " fill="#F5BB32" transform="translate(299,89)"/>
<path d="M0 0 C0.391875 0.639375 0.78375 1.27875 1.1875 1.9375 C3.38472296 4.43778819 4.75791433 4.64950425 8 5 C8 5.99 8 6.98 8 8 C4.89347355 7.6641593 3.39585697 7.40950721 1.1875 5.125 C0 3 0 3 0 0 Z " fill="#F6C736" transform="translate(392,87)"/>
<path d="M0 0 C0.33 0 0.66 0 1 0 C1.06058594 0.96421875 1.12117187 1.9284375 1.18359375 2.921875 C1.26738281 4.18515625 1.35117188 5.4484375 1.4375 6.75 C1.51871094 8.00296875 1.59992188 9.2559375 1.68359375 10.546875 C1.92515522 13.18317553 2.24283934 15.48037294 3 18 C2.01 17.67 1.02 17.34 0 17 C0 11.39 0 5.78 0 0 Z " fill="#D8852E" transform="translate(134,63)"/>
<path d="M0 0 C0 0.66 0 1.32 0 2 C-4.1205746 3.99785435 -7.45194365 4.17835515 -12 4 C-8.36043372 1.57362248 -4.44144233 0 0 0 Z " fill="#E98531" transform="translate(102,61)"/>
<path d="M0 0 C1.125 3.75 1.125 3.75 0 6 C0.99 6.33 1.98 6.66 3 7 C1.35 7.33 -0.3 7.66 -2 8 C-2.33 7.01 -2.66 6.02 -3 5 C-1.5625 2.3125 -1.5625 2.3125 0 0 Z " fill="#D98F38" transform="translate(205,21)"/>
<path d="M0 0 C6.15234375 -0.09765625 6.15234375 -0.09765625 8 0 C9 1 9 1 9.0625 4.0625 C9.041875 5.031875 9.02125 6.00125 9 7 C8.67 5.68 8.34 4.36 8 3 C5.36 2.67 2.72 2.34 0 2 C0 1.34 0 0.68 0 0 Z " fill="#E28B2E" transform="translate(137,81)"/>
<path d="M0 0 C0.33 0.99 0.66 1.98 1 3 C3.01508358 3.73323796 3.01508358 3.73323796 5 4 C3.11192137 6.69725519 1.80175356 8.13216429 -1 10 C-0.67 6.7 -0.34 3.4 0 0 Z " fill="#EB5A05" transform="translate(27,77)"/>
<path d="M0 0 C1.32 0 2.64 0 4 0 C4 0.66 4 1.32 4 2 C5.98 2 7.96 2 10 2 C10 2.66 10 3.32 10 4 C6.05272412 4.17942163 3.4019487 4.09350689 0 2 C0 1.34 0 0.68 0 0 Z " fill="#E89428" transform="translate(169,58)"/>
<path d="M0 0 C6.64615385 1.47692308 6.64615385 1.47692308 8.4375 4.125 C8.7159375 5.053125 8.7159375 5.053125 9 6 C8.01 5.67 7.02 5.34 6 5 C6 4.34 6 3.68 6 3 C3.69 3 1.38 3 -1 3 C-0.67 2.01 -0.34 1.02 0 0 Z " fill="#F1B336" transform="translate(290,42)"/>
<path d="M0 0 C0.66 0 1.32 0 2 0 C1.5206753 4.31392226 0.2542015 6.16569547 -3 9 C-3 7.68 -3 6.36 -3 5 C-2.34 5 -1.68 5 -1 5 C-0.67 3.35 -0.34 1.7 0 0 Z " fill="#E9A32D" transform="translate(157,112)"/>
<path d="M0 0 C-1.3125 2.5 -1.3125 2.5 -3 5 C-3.99 5 -4.98 5 -6 5 C-6 3.35 -6 1.7 -6 0 C-2.25 -1.125 -2.25 -1.125 0 0 Z " fill="#F9970E" transform="translate(150,112)"/>
<path d="M0 0 C0.144375 0.61875 0.28875 1.2375 0.4375 1.875 C0.93152225 4.03258322 0.93152225 4.03258322 2 6 C1.01 6 0.02 6 -1 6 C-1.33 7.32 -1.66 8.64 -2 10 C-2.66 10 -3.32 10 -4 10 C-2.8905928 6.51329166 -1.73662334 3.22515763 0 0 Z " fill="#E17528" transform="translate(128,50)"/>
<path d="M0 0 C1.98 0 3.96 0 6 0 C6 0.66 6 1.32 6 2 C4.576875 2.433125 4.576875 2.433125 3.125 2.875 C-0.05211578 3.76825109 -0.05211578 3.76825109 -2 6 C-2 4.68 -2 3.36 -2 2 C-1.34 2 -0.68 2 0 2 C0 1.34 0 0.68 0 0 Z " fill="#F4C538" transform="translate(385,49)"/>
<path d="M0 0 C2.78211944 0.37596209 4.5879284 0.67318459 6.8125 2.4375 C8 4 8 4 8 6 C7.34 6 6.68 6 6 6 C5.67 5.34 5.34 4.68 5 4 C3.02111039 3.27306096 1.02045442 2.60183749 -1 2 C-0.67 1.34 -0.34 0.68 0 0 Z " fill="#F6C333" transform="translate(373,42)"/>
<path d="M0 0 C2.97 0 5.94 0 9 0 C5.77208445 2.1519437 4.71599191 2.20086443 1 2 C1 2.66 1 3.32 1 4 C0.34 4 -0.32 4 -1 4 C-0.67 2.68 -0.34 1.36 0 0 Z " fill="#ECB149" transform="translate(326,43)"/>
<path d="M0 0 C0.433125 0.474375 0.86625 0.94875 1.3125 1.4375 C3.02309613 3.23686957 3.02309613 3.23686957 6 4 C5.67 4.66 5.34 5.32 5 6 C3.68 6 2.36 6 1 6 C0.34 4.35 -0.32 2.7 -1 1 C-0.67 0.67 -0.34 0.34 0 0 Z " fill="#E88621" transform="translate(125,86)"/>
<path d="M0 0 C0 2.31 0 4.62 0 7 C-0.66 7 -1.32 7 -2 7 C-3.625 5 -3.625 5 -5 3 C-4.34 3 -3.68 3 -3 3 C-3 2.34 -3 1.68 -3 1 C-1 0 -1 0 0 0 Z " fill="#DB671F" transform="translate(37,85)"/>
<path d="M0 0 C0.33 0 0.66 0 1 0 C1 3.63 1 7.26 1 11 C0.01 11.33 -0.98 11.66 -2 12 C-2 10.35 -2 8.7 -2 7 C-1.67 7 -1.34 7 -1 7 C-0.67 4.69 -0.34 2.38 0 0 Z " fill="#E4651C" transform="translate(64,57)"/>
<path d="M0 0 C1.65 0.33 3.3 0.66 5 1 C2.37801226 3.15377564 0.35595828 4.40072174 -3 5 C-2.67 4.01 -2.34 3.02 -2 2 C-1.34 2 -0.68 2 0 2 C0 1.34 0 0.68 0 0 Z " fill="#E87125" transform="translate(105,58)"/>
<path d="M0 0 C0.66 0.33 1.32 0.66 2 1 C2 2.32 2 3.64 2 5 C0 6.75 0 6.75 -2 8 C-1.125 1.125 -1.125 1.125 0 0 Z " fill="#DC6718" transform="translate(84,49)"/>
<path d="M0 0 C0.66 0 1.32 0 2 0 C2 0.66 2 1.32 2 2 C2.66 2.33 3.32 2.66 4 3 C3.34 4.98 2.68 6.96 2 9 C-0.29013653 5.5647952 -0.17842973 4.014669 0 0 Z " fill="#F6BE3A" transform="translate(325,78)"/>
<path d="M0 0 C1.65 0 3.3 0 5 0 C5.33 1.32 5.66 2.64 6 4 C4.35 3.67 2.7 3.34 1 3 C0.67 2.01 0.34 1.02 0 0 Z " fill="#E9821C" transform="translate(80,89)"/>
<path d="M0 0 C0.66 0.33 1.32 0.66 2 1 C1.34 4.63 0.68 8.26 0 12 C-0.33 12 -0.66 12 -1 12 C-1.02712066 10.56260487 -1.04645067 9.12506137 -1.0625 7.6875 C-1.07410156 6.88699219 -1.08570313 6.08648437 -1.09765625 5.26171875 C-1 3 -1 3 0 0 Z " fill="#DA8729" transform="translate(165,74)"/>
</svg>
