<svg version="1.1" id="Layer_1" xmlns="http://www.w3.org/2000/svg" xmlns:xlink="http://www.w3.org/1999/xlink" x="0px" y="0px"
	 width="100%" viewBox="0 0 523 168" enable-background="new 0 0 523 168" xml:space="preserve">
<path fill="none" opacity="1.000000" stroke="#000000" stroke-linecap="round" stroke-linejoin="round" stroke-width="3.000000"
	d="
M263.500000,62.500000 
	C252.190445,56.295109 242.734604,61.111187 239.515442,72.504364 
	C237.072861,81.149033 237.179550,89.887215 239.564316,98.482155 
	C241.322876,104.820206 245.431671,109.234993 252.000000,111.000000 
"/>
<path fill="none" opacity="1.000000" stroke="#000000" stroke-linecap="round" stroke-linejoin="round" stroke-width="3.000000"
	d="
M400.500000,97.000000 
	C403.649200,96.500740 406.798767,96.876228 410.051605,96.282875 
	C414.752777,95.425323 417.570190,92.964867 419.972626,89.481125 
	C422.981323,85.118294 423.765808,80.023117 422.895874,75.018097 
	C421.459473,66.753624 416.358490,59.160458 404.501526,60.021046 
	C403.500824,60.093674 402.358734,59.485661 401.000000,61.040462 
	C401.000000,66.824562 401.000000,73.162277 401.000000,79.500000 
"/>
<path fill="none" opacity="1.000000" stroke="#000000" stroke-linecap="round" stroke-linejoin="round" stroke-width="3.000000"
	d="
M434.000000,59.500000 
	C434.000000,71.166664 433.893036,82.834732 434.045227,94.499413 
	C434.120911,100.300400 435.673187,105.505043 440.936157,109.093651 
	C442.588196,110.220123 444.705688,109.402451 446.000000,111.000000 
"/>
<path fill="none" opacity="1.000000" stroke="#000000" stroke-linecap="round" stroke-linejoin="round" stroke-width="2.000000"
	d="
M463.500000,59.500000 
	C463.500000,70.833336 463.500000,82.166664 463.500000,93.500000 
	C463.500000,103.936333 460.684875,107.877495 451.000000,111.000000 
"/>
<path fill="none" opacity="1.000000" stroke="#000000" stroke-linecap="round" stroke-linejoin="round" stroke-width="3.000000"
	d="
M293.500000,59.500000 
	C293.505798,65.655159 297.123199,70.730186 298.689545,76.448074 
	C301.706055,87.459518 305.815613,98.172752 309.529633,108.989830 
	C309.870361,109.982246 309.718384,111.558624 311.500000,111.500000 
"/>
<path fill="none" opacity="1.000000" stroke="#000000" stroke-linecap="round" stroke-linejoin="round" stroke-width="3.000000"
	d="
M373.500000,59.500000 
	C372.270844,67.423615 368.464630,74.488487 366.010773,82.003517 
	C363.131348,90.821800 360.268829,99.647041 357.568665,108.520889 
	C357.158112,109.870171 356.965149,111.032326 355.500000,111.500000 
"/>
<path fill="none" opacity="1.000000" stroke="#000000" stroke-linecap="round" stroke-linejoin="round" stroke-width="4.000000"
	d="
M333.500000,61.000000 
	C333.500000,77.500000 333.500000,94.000000 333.500000,110.500000 
"/>
<path fill="none" opacity="1.000000" stroke="#000000" stroke-linecap="round" stroke-linejoin="round" stroke-width="3.000000"
	d="
M209.500000,59.500000 
	C208.502060,63.148579 211.084000,65.881470 212.078720,68.974686 
	C216.225052,81.868156 220.637009,94.676857 225.040817,107.485970 
	C225.541534,108.942406 225.265976,111.042091 227.500000,111.500000 
"/>
<path fill="none" opacity="1.000000" stroke="#000000" stroke-linecap="round" stroke-linejoin="round" stroke-width="3.000000"
	d="
M209.500000,64.500000 
	C205.545227,69.106911 205.142456,75.177094 203.134155,80.550148 
	C199.336700,90.709999 196.333344,101.166672 193.000015,111.500000 
"/>
<path fill="none" opacity="1.000000" stroke="#000000" stroke-linecap="round" stroke-linejoin="round" stroke-width="3.000000"
	d="
M374.000000,65.000008 
	C377.666656,75.666672 381.331940,86.333809 385.000641,96.999786 
	C386.663544,101.834404 388.333313,106.666672 390.000000,111.500008 
"/>
<path fill="none" opacity="1.000000" stroke="#000000" stroke-linecap="round" stroke-linejoin="round" stroke-width="3.000000"
	d="
M293.000000,65.000000 
	C288.549988,75.397400 285.868530,86.402504 282.005096,97.001862 
	C280.308136,101.657486 278.666656,106.333328 277.000000,110.999992 
"/>
<path fill="none" opacity="1.000000" stroke="#000000" stroke-linecap="round" stroke-linejoin="round" stroke-width="3.000000"
	d="
M473.500000,59.500000 
	C475.486237,62.742355 473.966187,66.165665 473.978668,69.500076 
	C474.029724,83.166550 474.000000,96.833336 474.000000,110.500000 
"/>
<path fill="none" opacity="1.000000" stroke="#000000" stroke-linecap="round" stroke-linejoin="round" stroke-width="3.000000"
	d="
M182.000000,60.500000 
	C182.000000,73.666664 182.018112,86.833389 181.979507,99.999939 
	C181.974030,101.866371 182.547836,103.887482 181.000000,105.500000 
"/>
<path fill="none" opacity="1.000000" stroke="#000000" stroke-linecap="round" stroke-linejoin="round" stroke-width="3.000000"
	d="
M498.000000,60.500000 
	C498.000000,73.666664 497.985138,86.833366 498.009338,99.999985 
	C498.016388,103.837738 497.202942,107.715813 498.500000,111.500000 
"/>
<path fill="none" opacity="1.000000" stroke="#000000" stroke-linecap="round" stroke-linejoin="round" stroke-width="3.000000"
	d="
M157.500000,59.500000 
	C158.797058,63.284187 157.983658,67.162262 157.990723,71.000015 
	C158.014938,84.166634 158.000000,97.333336 158.000000,110.500000 
"/>
<path fill="none" opacity="1.000000" stroke="#000000" stroke-linecap="round" stroke-linejoin="round" stroke-width="3.000000"
	d="
M256.500000,111.000000 
	C258.333344,110.666664 260.345337,110.701401 261.959991,109.917557 
	C264.683044,108.595627 266.593689,106.707558 266.108643,102.985840 
	C265.616486,99.209404 266.000000,95.318848 266.000000,91.000000 
	C261.513885,91.000000 257.506958,91.000000 253.500000,91.000000 
"/>
<path fill="none" opacity="1.000000" stroke="#000000" stroke-linecap="round" stroke-linejoin="round" stroke-width="3.000000"
	d="
M414.500000,96.000000 
	C417.205078,101.337921 419.425110,106.957466 423.500000,111.500000 
"/>
<path fill="none" opacity="1.000000" stroke="#000000" stroke-linecap="round" stroke-linejoin="round" stroke-width="3.000000"
	d="
M290.500000,97.500000 
	C292.960968,97.826248 291.543091,99.812393 292.026672,100.989037 
	C293.422485,104.385399 294.580902,107.834030 295.000000,111.500000 
"/>
<path fill="none" opacity="1.000000" stroke="#000000" stroke-linecap="round" stroke-linejoin="round" stroke-width="3.000000"
	d="
M206.500000,97.500000 
	C209.496750,98.084961 207.670242,100.942444 208.772156,102.647263 
	C210.336288,105.067192 210.333328,108.500000 211.000000,111.500000 
"/>
<path fill="none" opacity="1.000000" stroke="#000000" stroke-linecap="round" stroke-linejoin="round" stroke-width="3.000000"
	d="
M371.000000,97.500000 
	C372.296051,102.011047 372.896301,106.728256 375.000000,111.000000 
"/>
<path fill="none" opacity="1.000000" stroke="#000000" stroke-linecap="round" stroke-linejoin="round" stroke-width="3.000000"
	d="
M340.500000,59.500000 
	C334.200562,60.955128 327.827637,59.616650 321.500000,60.000000 
"/>
<path fill="none" opacity="1.000000" stroke="#000000" stroke-linecap="round" stroke-linejoin="round" stroke-width="2.000000"
	d="
M475.000000,64.500000 
	C477.932800,66.410782 477.563965,70.591446 480.500000,72.500000 
"/>
<path fill="none" opacity="1.000000" stroke="#000000" stroke-linecap="round" stroke-linejoin="round" stroke-width="2.000000"
	d="
M175.500000,98.500000 
	C178.483643,102.483170 181.615326,106.386620 182.500000,111.500000 
"/>
<path fill="none" opacity="1.000000" stroke="#000000" stroke-linecap="round" stroke-linejoin="round" stroke-width="2.000000"
	d="
M159.000000,65.500000 
	C161.314453,67.062904 161.631195,69.855156 163.000000,72.000000 
"/>
<path fill="none" opacity="1.000000" stroke="#000000" stroke-linecap="round" stroke-linejoin="round" stroke-width="2.000000"
	d="
M493.000000,99.000000 
	C494.368805,101.144844 494.685547,103.937096 497.000000,105.500000 
"/>
</svg>